Kablammov0.13-A.ufo
<glyph name="dollar" format="2">
  <advance width="468"/>
  <unicode hex="0024"/>
  <outline>
    <contour>
      <point x="222" y="31" type="curve" smooth="yes"/>
      <point x="341" y="31"/>
      <point x="451" y="66"/>
      <point x="451" y="206" type="curve" smooth="yes"/>
      <point x="451" y="308"/>
      <point x="402" y="347"/>
      <point x="268" y="400" type="curve" smooth="yes"/>
      <point x="194" y="430"/>
      <point x="166" y="465"/>
      <point x="166" y="511" type="curve" smooth="yes"/>
      <point x="166" y="565"/>
      <point x="203" y="593"/>
      <point x="271" y="593" type="curve" smooth="yes"/>
      <point x="344" y="593"/>
      <point x="366" y="572"/>
      <point x="398" y="572" type="curve" smooth="yes"/>
      <point x="417" y="572"/>
      <point x="426" y="587"/>
      <point x="426" y="606" type="curve" smooth="yes"/>
      <point x="426" y="636"/>
      <point x="347" y="675"/>
      <point x="253" y="675" type="curve" smooth="yes"/>
      <point x="109" y="675"/>
      <point x="6" y="618"/>
      <point x="6" y="495" type="curve" smooth="yes"/>
      <point x="6" y="385"/>
      <point x="77" y="332"/>
      <point x="218" y="298" type="curve" smooth="yes"/>
      <point x="344" y="268"/>
      <point x="368" y="239"/>
      <point x="368" y="187" type="curve" smooth="yes"/>
      <point x="368" y="134"/>
      <point x="307" y="108"/>
      <point x="231" y="108" type="curve" smooth="yes"/>
      <point x="139" y="108"/>
      <point x="69" y="176"/>
      <point x="39" y="176" type="curve" smooth="yes"/>
      <point x="22" y="176"/>
      <point x="9" y="162"/>
      <point x="9" y="143" type="curve" smooth="yes"/>
      <point x="9" y="90"/>
      <point x="125" y="31"/>
    </contour>
    <contour>
      <point x="95" y="491" type="curve" smooth="yes"/>
      <point x="75" y="491"/>
      <point x="59" y="507"/>
      <point x="59" y="527" type="curve" smooth="yes"/>
      <point x="59" y="546"/>
      <point x="75" y="563"/>
      <point x="95" y="563" type="curve" smooth="yes"/>
      <point x="114" y="563"/>
      <point x="131" y="546"/>
      <point x="131" y="527" type="curve" smooth="yes"/>
      <point x="131" y="507"/>
      <point x="114" y="491"/>
    </contour>
    <contour>
      <point x="115" y="391" type="curve" smooth="yes"/>
      <point x="96" y="391"/>
      <point x="81" y="406"/>
      <point x="81" y="425" type="curve" smooth="yes"/>
      <point x="81" y="443"/>
      <point x="96" y="459"/>
      <point x="115" y="459" type="curve" smooth="yes"/>
      <point x="133" y="459"/>
      <point x="149" y="443"/>
      <point x="149" y="425" type="curve" smooth="yes"/>
      <point x="149" y="406"/>
      <point x="133" y="391"/>
    </contour>
    <contour>
      <point x="297" y="51" type="line"/>
      <point x="335" y="-68"/>
      <point x="354" y="-87"/>
      <point x="379" y="-76" type="curve" smooth="yes"/>
      <point x="401" y="-67"/>
      <point x="409" y="-47"/>
      <point x="352" y="76" type="curve"/>
    </contour>
    <contour>
      <point x="88" y="87" type="line"/>
      <point x="58" y="29"/>
      <point x="28" y="-35"/>
      <point x="59" y="-51" type="curve" smooth="yes"/>
      <point x="87" y="-63"/>
      <point x="107" y="-15"/>
      <point x="141" y="58" type="curve"/>
    </contour>
    <contour>
      <point x="220" y="315" type="curve" smooth="yes"/>
      <point x="203" y="189"/>
      <point x="186" y="45"/>
      <point x="172" y="-90" type="curve" smooth="yes"/>
      <point x="168" y="-132"/>
      <point x="180" y="-145"/>
      <point x="199" y="-146" type="curve" smooth="yes"/>
      <point x="217" y="-147"/>
      <point x="229" y="-137"/>
      <point x="234" y="-97" type="curve" smooth="yes"/>
      <point x="250" y="37"/>
      <point x="266" y="179"/>
      <point x="280" y="306" type="curve" smooth="yes"/>
      <point x="283" y="336"/>
      <point x="270" y="347"/>
      <point x="256" y="350" type="curve" smooth="yes"/>
      <point x="241" y="353"/>
      <point x="224" y="348"/>
    </contour>
    <contour>
      <point x="290" y="388" type="curve" smooth="yes"/>
      <point x="304" y="504"/>
      <point x="318" y="631"/>
      <point x="330" y="741" type="curve" smooth="yes"/>
      <point x="335" y="781"/>
      <point x="324" y="795"/>
      <point x="307" y="797" type="curve" smooth="yes"/>
      <point x="289" y="799"/>
      <point x="278" y="790"/>
      <point x="273" y="751" type="curve" smooth="yes"/>
      <point x="259" y="643"/>
      <point x="244" y="515"/>
      <point x="231" y="397" type="curve" smooth="yes"/>
      <point x="228" y="370"/>
      <point x="241" y="358"/>
      <point x="255" y="356" type="curve" smooth="yes"/>
      <point x="270" y="352"/>
      <point x="286" y="358"/>
    </contour>
  </outline>
</glyph>
<glyph name="percent" format="2">
  <advance width="664"/>
  <unicode hex="0025"/>
  <outline>
    <contour>
      <point x="180" y="378" type="curve" smooth="yes"/>
      <point x="273" y="378"/>
      <point x="323" y="431"/>
      <point x="323" y="537" type="curve" smooth="yes"/>
      <point x="323" y="644"/>
      <point x="280" y="698"/>
      <point x="197" y="698" type="curve" smooth="yes"/>
      <point x="101" y="698"/>
      <point x="48" y="642"/>
      <point x="48" y="530" type="curve" smooth="yes"/>
      <point x="48" y="433"/>
      <point x="88" y="378"/>
    </contour>
    <contour>
      <point x="185" y="452" type="curve" smooth="yes"/>
      <point x="151" y="452"/>
      <point x="135" y="483"/>
      <point x="135" y="539" type="curve" smooth="yes"/>
      <point x="135" y="584"/>
      <point x="154" y="609"/>
      <point x="194" y="609" type="curve" smooth="yes"/>
      <point x="236" y="609"/>
      <point x="255" y="586"/>
      <point x="255" y="543" type="curve" smooth="yes"/>
      <point x="255" y="485"/>
      <point x="233" y="452"/>
    </contour>
    <contour>
      <point x="476" y="-6" type="curve" smooth="yes"/>
      <point x="575" y="-6"/>
      <point x="628" y="42"/>
      <point x="628" y="136" type="curve" smooth="yes"/>
      <point x="628" y="232"/>
      <point x="578" y="278"/>
      <point x="493" y="278" type="curve" smooth="yes"/>
      <point x="409" y="278"/>
      <point x="350" y="227"/>
      <point x="350" y="124" type="curve" smooth="yes"/>
      <point x="350" y="37"/>
      <point x="400" y="-6"/>
    </contour>
    <contour>
      <point x="479" y="67" type="curve" smooth="yes"/>
      <point x="441" y="67"/>
      <point x="424" y="86"/>
      <point x="424" y="121" type="curve" smooth="yes"/>
      <point x="424" y="167"/>
      <point x="445" y="193"/>
      <point x="486" y="193" type="curve" smooth="yes"/>
      <point x="525" y="193"/>
      <point x="542" y="170"/>
      <point x="542" y="125" type="curve" smooth="yes"/>
      <point x="542" y="88"/>
      <point x="522" y="67"/>
    </contour>
    <contour>
      <point x="498" y="19" type="line"/>
      <point x="530" y="-109"/>
      <point x="552" y="-132"/>
      <point x="585" y="-122" type="curve" smooth="yes"/>
      <point x="620" y="-111"/>
      <point x="619" y="-82"/>
      <point x="571" y="44" type="curve"/>
    </contour>
    <contour>
      <point x="386" y="54" type="line"/>
      <point x="330" y="-26"/>
      <point x="333" y="-59"/>
      <point x="354" y="-74" type="curve" smooth="yes"/>
      <point x="377" y="-90"/>
      <point x="402" y="-84"/>
      <point x="457" y="9" type="curve"/>
    </contour>
    <contour>
      <point x="187" y="680" type="line"/>
      <point x="166" y="775"/>
      <point x="145" y="803"/>
      <point x="110" y="792" type="curve" smooth="yes"/>
      <point x="77" y="782"/>
      <point x="75" y="755"/>
      <point x="106" y="653" type="curve"/>
    </contour>
    <contour>
      <point x="298" y="577" type="line"/>
      <point x="436" y="645"/>
      <point x="451" y="667"/>
      <point x="433" y="701" type="curve" smooth="yes"/>
      <point x="416" y="730"/>
      <point x="385" y="720"/>
      <point x="258" y="645" type="curve"/>
    </contour>
    <contour>
      <point x="99" y="464" type="line"/>
      <point x="43" y="356"/>
      <point x="42" y="326"/>
      <point x="70" y="309" type="curve" smooth="yes"/>
      <point x="98" y="293"/>
      <point x="122" y="312"/>
      <point x="180" y="419" type="curve"/>
    </contour>
    <contour>
      <point x="559" y="595" type="curve" smooth="yes"/>
      <point x="383" y="430"/>
      <point x="212" y="267"/>
      <point x="42" y="102" type="curve" smooth="yes"/>
      <point x="15" y="76"/>
      <point x="18" y="50"/>
      <point x="30" y="38" type="curve" smooth="yes"/>
      <point x="44" y="23"/>
      <point x="69" y="23"/>
      <point x="100" y="52" type="curve" smooth="yes"/>
      <point x="273" y="212"/>
      <point x="443" y="373"/>
      <point x="612" y="537" type="curve" smooth="yes"/>
      <point x="647" y="570"/>
      <point x="643" y="594"/>
      <point x="631" y="606" type="curve" smooth="yes"/>
      <point x="620" y="618"/>
      <point x="592" y="625"/>
    </contour>
    <contour>
      <point x="574" y="174" type="line"/>
      <point x="585" y="187"/>
      <point x="592" y="200"/>
      <point x="574" y="223" type="curve" smooth="yes"/>
      <point x="554" y="245"/>
      <point x="543" y="242"/>
      <point x="525" y="231" type="curve"/>
    </contour>
  </outline>
</glyph>
<glyph name="ampersand" format="2">
  <advance width="557"/>
  <unicode hex="0026"/>
  <outline>
    <contour>
      <point x="245" y="-24" type="curve" smooth="yes"/>
      <point x="381" y="-24"/>
      <point x="465" y="39"/>
      <point x="465" y="147" type="curve" smooth="yes"/>
      <point x="465" y="178"/>
      <point x="454" y="236"/>
      <point x="448" y="266" type="curve" smooth="yes"/>
      <point x="439" y="307"/>
      <point x="447" y="316"/>
      <point x="482" y="320" type="curve" smooth="yes"/>
      <point x="531" y="325"/>
      <point x="556" y="369"/>
      <point x="556" y="413" type="curve" smooth="yes"/>
      <point x="556" y="461"/>
      <point x="526" y="509"/>
      <point x="463" y="509" type="curve" smooth="yes"/>
      <point x="451" y="509"/>
      <point x="434" y="506"/>
      <point x="415" y="502" type="curve"/>
      <point x="442" y="420"/>
      <point x="448" y="394"/>
      <point x="425" y="386" type="curve" smooth="yes"/>
      <point x="401" y="378"/>
      <point x="388" y="404"/>
      <point x="364" y="488" type="curve"/>
      <point x="353" y="485"/>
      <point x="343" y="482"/>
      <point x="332" y="479" type="curve"/>
      <point x="342" y="409"/>
      <point x="342" y="386"/>
      <point x="315" y="384" type="curve" smooth="yes"/>
      <point x="290" y="382"/>
      <point x="287" y="397"/>
      <point x="285" y="465" type="curve"/>
      <point x="259" y="458"/>
      <point x="238" y="453"/>
      <point x="226" y="453" type="curve" smooth="yes"/>
      <point x="179" y="453"/>
      <point x="160" y="491"/>
      <point x="160" y="539" type="curve" smooth="yes"/>
      <point x="160" y="588"/>
      <point x="192" y="626"/>
      <point x="290" y="626" type="curve" smooth="yes"/>
      <point x="326" y="626"/>
      <point x="353" y="619"/>
      <point x="377" y="619" type="curve" smooth="yes"/>
      <point x="403" y="619"/>
      <point x="424" y="626"/>
      <point x="424" y="659" type="curve" smooth="yes"/>
      <point x="424" y="692"/>
      <point x="396" y="714"/>
      <point x="303" y="714" type="curve" smooth="yes"/>
      <point x="165" y="714"/>
      <point x="68" y="650"/>
      <point x="68" y="532" type="curve" smooth="yes"/>
      <point x="68" y="466"/>
      <point x="101" y="413"/>
      <point x="165" y="392" type="curve" smooth="yes"/>
      <point x="179" y="387"/>
      <point x="180" y="368"/>
      <point x="164" y="364" type="curve" smooth="yes"/>
      <point x="86" y="346"/>
      <point x="20" y="292"/>
      <point x="20" y="187" type="curve" smooth="yes"/>
      <point x="20" y="63"/>
      <point x="95" y="-24"/>
    </contour>
    <contour>
      <point x="306" y="68" type="curve" smooth="yes"/>
      <point x="230" y="68"/>
      <point x="166" y="169"/>
      <point x="166" y="242" type="curve" smooth="yes"/>
      <point x="166" y="297"/>
      <point x="191" y="313"/>
      <point x="231" y="315" type="curve" smooth="yes"/>
      <point x="255" y="316"/>
      <point x="279" y="316"/>
      <point x="307" y="315" type="curve" smooth="yes"/>
      <point x="336" y="314"/>
      <point x="356" y="299"/>
      <point x="366" y="261" type="curve" smooth="yes"/>
      <point x="373" y="235"/>
      <point x="379" y="204"/>
      <point x="382" y="182" type="curve" smooth="yes"/>
      <point x="391" y="105"/>
      <point x="368" y="68"/>
    </contour>
    <contour>
      <point x="102" y="190" type="curve" smooth="yes"/>
      <point x="84" y="190"/>
      <point x="70" y="204"/>
      <point x="70" y="222" type="curve" smooth="yes"/>
      <point x="70" y="239"/>
      <point x="84" y="253"/>
      <point x="102" y="253" type="curve" smooth="yes"/>
      <point x="119" y="253"/>
      <point x="133" y="239"/>
      <point x="133" y="222" type="curve" smooth="yes"/>
      <point x="133" y="204"/>
      <point x="119" y="190"/>
    </contour>
    <contour>
      <point x="116" y="90" type="curve" smooth="yes"/>
      <point x="95" y="90"/>
      <point x="78" y="107"/>
      <point x="78" y="128" type="curve" smooth="yes"/>
      <point x="78" y="148"/>
      <point x="95" y="164"/>
      <point x="116" y="164" type="curve" smooth="yes"/>
      <point x="136" y="164"/>
      <point x="152" y="148"/>
      <point x="152" y="128" type="curve" smooth="yes"/>
      <point x="152" y="107"/>
      <point x="136" y="90"/>
    </contour>
    <contour>
      <point x="173" y="24" type="curve" smooth="yes"/>
      <point x="155" y="24"/>
      <point x="141" y="38"/>
      <point x="141" y="56" type="curve" smooth="yes"/>
      <point x="141" y="73"/>
      <point x="155" y="87"/>
      <point x="173" y="87" type="curve" smooth="yes"/>
      <point x="190" y="87"/>
      <point x="204" y="73"/>
      <point x="204" y="56" type="curve" smooth="yes"/>
      <point x="204" y="38"/>
      <point x="190" y="24"/>
    </contour>
    <contour>
      <point x="326" y="676" type="curve" smooth="yes"/>
      <point x="329" y="681"/>
      <point x="328" y="690"/>
      <point x="306" y="698" type="curve" smooth="yes"/>
      <point x="287" y="705"/>
      <point x="279" y="701"/>
      <point x="276" y="694" type="curve" smooth="yes"/>
      <point x="272" y="685"/>
      <point x="269" y="678"/>
      <point x="267" y="671" type="curve" smooth="yes"/>
      <point x="265" y="664"/>
      <point x="265" y="655"/>
      <point x="286" y="647" type="curve" smooth="yes"/>
      <point x="306" y="641"/>
      <point x="314" y="649"/>
      <point x="318" y="656" type="curve" smooth="yes"/>
      <point x="321" y="663"/>
      <point x="325" y="670"/>
    </contour>
    <contour>
      <point x="398" y="660" type="curve" smooth="yes"/>
      <point x="400" y="666"/>
      <point x="399" y="675"/>
      <point x="376" y="683" type="curve" smooth="yes"/>
      <point x="358" y="689"/>
      <point x="349" y="682"/>
      <point x="347" y="678" type="curve" smooth="yes"/>
      <point x="343" y="669"/>
      <point x="340" y="663"/>
      <point x="338" y="655" type="curve" smooth="yes"/>
      <point x="336" y="648"/>
      <point x="336" y="639"/>
      <point x="357" y="632" type="curve" smooth="yes"/>
      <point x="377" y="625"/>
      <point x="385" y="633"/>
      <point x="389" y="640" type="curve" smooth="yes"/>
      <point x="393" y="647"/>
      <point x="396" y="654"/>
    </contour>
  </outline>
</glyph>
<glyph name="parenright" format="2">
  <advance width="367"/>
  <unicode hex="0029"/>
  <outline>
    <contour>
      <point x="308" y="372" type="curve" smooth="yes"/>
      <point x="308" y="592"/>
      <point x="230" y="739"/>
      <point x="72" y="836" type="curve" smooth="yes"/>
      <point x="5" y="877"/>
      <point x="-43" y="794"/>
      <point x="13" y="757" type="curve" smooth="yes"/>
      <point x="144" y="671"/>
      <point x="212" y="566"/>
      <point x="212" y="358" type="curve" smooth="yes"/>
      <point x="212" y="221"/>
      <point x="145" y="50"/>
      <point x="40" y="-81" type="curve" smooth="yes"/>
      <point x="-14" y="-150"/>
      <point x="82" y="-224"/>
      <point x="137" y="-152" type="curve" smooth="yes"/>
      <point x="229" y="-31"/>
      <point x="308" y="189"/>
    </contour>
    <contour>
      <point x="178" y="591" type="curve" smooth="yes"/>
      <point x="96" y="558"/>
      <point x="76" y="542"/>
      <point x="86" y="512" type="curve" smooth="yes"/>
      <point x="98" y="477"/>
      <point x="125" y="477"/>
      <point x="209" y="505" type="curve" smooth="yes"/>
      <point x="237" y="514"/>
      <point x="265" y="525"/>
      <point x="294" y="537" type="curve" smooth="yes"/>
      <point x="376" y="571"/>
      <point x="389" y="585"/>
      <point x="378" y="617" type="curve" smooth="yes"/>
      <point x="369" y="642"/>
      <point x="347" y="646"/>
      <point x="265" y="622" type="curve" smooth="yes"/>
      <point x="237" y="614"/>
      <point x="205" y="602"/>
    </contour>
    <contour>
      <point x="175" y="339" type="curve" smooth="yes"/>
      <point x="96" y="346"/>
      <point x="78" y="341"/>
      <point x="72" y="307" type="curve" smooth="yes"/>
      <point x="66" y="275"/>
      <point x="83" y="261"/>
      <point x="162" y="248" type="curve" smooth="yes"/>
      <point x="196" y="242"/>
      <point x="224" y="238"/>
      <point x="257" y="236" type="curve" smooth="yes"/>
      <point x="271" y="236"/>
      <point x="280" y="243"/>
      <point x="284" y="277" type="curve" smooth="yes"/>
      <point x="287" y="304"/>
      <point x="285" y="320"/>
      <point x="272" y="323" type="curve" smooth="yes"/>
      <point x="243" y="330"/>
      <point x="209" y="336"/>
    </contour>
    <contour>
      <point x="236" y="480" type="curve" smooth="yes"/>
      <point x="223" y="477"/>
      <point x="215" y="470"/>
      <point x="219" y="439" type="curve" smooth="yes"/>
      <point x="222" y="407"/>
      <point x="230" y="403"/>
      <point x="243" y="403" type="curve" smooth="yes"/>
      <point x="254" y="403"/>
      <point x="263" y="404"/>
      <point x="272" y="406" type="curve" smooth="yes"/>
      <point x="287" y="410"/>
      <point x="291" y="417"/>
      <point x="289" y="446" type="curve" smooth="yes"/>
      <point x="285" y="475"/>
      <point x="275" y="485"/>
      <point x="260" y="484" type="curve" smooth="yes"/>
      <point x="252" y="483"/>
      <point x="243" y="482"/>
    </contour>
  </outline>
</glyph>
<glyph name="hyphen" format="2">
  <advance width="333"/>
  <unicode hex="002D"/>
  <outline>
    <contour>
      <point x="85" y="367" type="curve" smooth="yes"/>
      <point x="41" y="363"/>
      <point x="30" y="342"/>
      <point x="30" y="322" type="curve" smooth="yes"/>
      <point x="30" y="297"/>
      <point x="43" y="279"/>
      <point x="85" y="275" type="curve" smooth="yes"/>
      <point x="132" y="270"/>
      <point x="182" y="268"/>
      <point x="227" y="267" type="curve" smooth="yes"/>
      <point x="284" y="266"/>
      <point x="302" y="294"/>
      <point x="302" y="324" type="curve" smooth="yes"/>
      <point x="302" y="353"/>
      <point x="286" y="377"/>
      <point x="236" y="376" type="curve" smooth="yes"/>
      <point x="186" y="375"/>
      <point x="135" y="372"/>
    </contour>
  </outline>
</glyph>
<glyph name="slash" format="2">
  <advance width="402"/>
  <unicode hex="002F"/>
  <outline>
    <contour>
      <point x="37" y="-120" type="curve" smooth="yes"/>
      <point x="67" y="-132"/>
      <point x="102" y="-122"/>
      <point x="117" y="-78" type="curve" smooth="yes"/>
      <point x="212" y="202"/>
      <point x="306" y="491"/>
      <point x="395" y="771" type="curve" smooth="yes"/>
      <point x="408" y="812"/>
      <point x="397" y="831"/>
      <point x="366" y="842" type="curve" smooth="yes"/>
      <point x="341" y="851"/>
      <point x="316" y="840"/>
      <point x="302" y="800" type="curve" smooth="yes"/>
      <point x="204" y="524"/>
      <point x="108" y="238"/>
      <point x="15" y="-41" type="curve" smooth="yes"/>
      <point x="0" y="-86"/>
      <point x="10" y="-109"/>
    </contour>
  </outline>
</glyph>
<glyph name="two" format="2">
  <advance width="512"/>
  <unicode hex="0032"/>
  <outline>
    <contour>
      <point x="394" y="516" type="curve" smooth="yes"/>
      <point x="394" y="464"/>
      <point x="375" y="426"/>
      <point x="344" y="395" type="curve" smooth="yes"/>
      <point x="268" y="319"/>
      <point x="135" y="297"/>
      <point x="67" y="229" type="curve" smooth="yes"/>
      <point x="41" y="203"/>
      <point x="25" y="170"/>
      <point x="25" y="130" type="curve" smooth="yes"/>
      <point x="25" y="55"/>
      <point x="70" y="0"/>
      <point x="166" y="-4" type="curve" smooth="yes"/>
      <point x="380" y="-12" type="line" smooth="yes"/>
      <point x="520" y="-17"/>
      <point x="511" y="230"/>
      <point x="386" y="209" type="curve" smooth="yes"/>
      <point x="173" y="173" type="line" smooth="yes"/>
      <point x="146" y="168"/>
      <point x="140" y="186"/>
      <point x="154" y="201" type="curve" smooth="yes"/>
      <point x="193" y="242"/>
      <point x="319" y="265"/>
      <point x="406" y="353" type="curve" smooth="yes"/>
      <point x="448" y="395"/>
      <point x="477" y="451"/>
      <point x="477" y="525" type="curve" smooth="yes"/>
      <point x="477" y="624"/>
      <point x="406" y="721"/>
      <point x="259" y="721" type="curve" smooth="yes"/>
      <point x="128" y="721"/>
      <point x="50" y="645"/>
      <point x="50" y="541" type="curve" smooth="yes"/>
      <point x="50" y="457"/>
      <point x="97" y="392"/>
      <point x="197" y="392" type="curve" smooth="yes"/>
      <point x="275" y="392"/>
      <point x="329" y="438"/>
      <point x="329" y="506" type="curve" smooth="yes"/>
      <point x="329" y="567"/>
      <point x="289" y="597"/>
      <point x="247" y="597" type="curve" smooth="yes"/>
      <point x="211" y="597"/>
      <point x="189" y="579"/>
      <point x="189" y="556" type="curve" smooth="yes"/>
      <point x="189" y="498"/>
      <point x="254" y="553"/>
      <point x="254" y="496" type="curve" smooth="yes"/>
      <point x="254" y="475"/>
      <point x="236" y="462"/>
      <point x="205" y="462" type="curve" smooth="yes"/>
      <point x="152" y="462"/>
      <point x="125" y="499"/>
      <point x="125" y="547" type="curve" smooth="yes"/>
      <point x="125" y="609"/>
      <point x="172" y="651"/>
      <point x="256" y="651" type="curve" smooth="yes"/>
      <point x="348" y="651"/>
      <point x="394" y="582"/>
    </contour>
    <contour>
      <point x="265" y="189" type="line"/>
      <point x="272" y="90"/>
      <point x="258" y="70"/>
      <point x="237" y="70" type="curve" smooth="yes"/>
      <point x="214" y="70"/>
      <point x="199" y="90"/>
      <point x="203" y="178" type="curve"/>
    </contour>
    <contour>
      <point x="379" y="208" type="line"/>
      <point x="396" y="106"/>
      <point x="392" y="70"/>
      <point x="359" y="70" type="curve" smooth="yes"/>
      <point x="330" y="70"/>
      <point x="324" y="98"/>
      <point x="321" y="198" type="curve"/>
    </contour>
    <contour>
      <point x="455" y="675" type="line" smooth="yes"/>
      <point x="510" y="721"/>
      <point x="429" y="781"/>
      <point x="397" y="728" type="curve" smooth="yes"/>
      <point x="362" y="670" type="line"/>
      <point x="403" y="632" type="line"/>
    </contour>
    <contour>
      <point x="305" y="787" type="line" smooth="yes"/>
      <point x="311" y="837"/>
      <point x="231" y="840"/>
      <point x="229" y="795" type="curve" smooth="yes"/>
      <point x="225" y="699" type="line"/>
      <point x="295" y="696" type="line"/>
    </contour>
    <contour>
      <point x="129" y="747" type="line" smooth="yes"/>
      <point x="100" y="793"/>
      <point x="36" y="743"/>
      <point x="68" y="706" type="curve" smooth="yes"/>
      <point x="124" y="643" type="line"/>
      <point x="171" y="680" type="line"/>
    </contour>
    <contour>
      <point x="336" y="20" type="curve" smooth="yes"/>
      <point x="334" y="37" type="line" smooth="yes"/>
      <point x="331" y="65"/>
      <point x="274" y="51"/>
      <point x="285" y="22" type="curve" smooth="yes"/>
      <point x="290" y="9" type="line" smooth="yes"/>
      <point x="297" y="-9"/>
      <point x="340" y="-18"/>
    </contour>
    <contour>
      <point x="262" y="5" type="curve" smooth="yes"/>
      <point x="264" y="26" type="line" smooth="yes"/>
      <point x="268" y="64"/>
      <point x="228" y="69"/>
      <point x="219" y="38" type="curve" smooth="yes"/>
      <point x="210" y="8" type="line" smooth="yes"/>
      <point x="205" y="-9"/>
      <point x="260" y="-13"/>
    </contour>
    <contour>
      <point x="409" y="32" type="line" smooth="yes"/>
      <point x="412" y="56"/>
      <point x="358" y="61"/>
      <point x="355" y="35" type="curve" smooth="yes"/>
      <point x="353" y="18" type="line" smooth="yes"/>
      <point x="349" y="-12"/>
      <point x="402" y="-20"/>
      <point x="407" y="17" type="curve" smooth="yes"/>
    </contour>
    <contour>
      <point x="177" y="667" type="curve" smooth="yes"/>
      <point x="177" y="667"/>
      <point x="177" y="667"/>
      <point x="177" y="667" type="curve" smooth="yes"/>
      <point x="177" y="667"/>
      <point x="177" y="667"/>
      <point x="177" y="667" type="curve" smooth="yes"/>
      <point x="177" y="667"/>
      <point x="177" y="667"/>
      <point x="177" y="667" type="curve" smooth="yes"/>
      <point x="177" y="667"/>
      <point x="177" y="667"/>
    </contour>
    <contour>
      <point x="288" y="675" type="curve" smooth="yes"/>
      <point x="288" y="675"/>
      <point x="288" y="675"/>
      <point x="288" y="675" type="curve" smooth="yes"/>
      <point x="288" y="675"/>
      <point x="288" y="675"/>
      <point x="288" y="675" type="curve" smooth="yes"/>
      <point x="288" y="675"/>
      <point x="288" y="675"/>
      <point x="288" y="675" type="curve" smooth="yes"/>
      <point x="288" y="675"/>
      <point x="288" y="675"/>
    </contour>
    <contour>
      <point x="385" y="620" type="curve" smooth="yes"/>
      <point x="385" y="620"/>
      <point x="385" y="620"/>
      <point x="385" y="620" type="curve" smooth="yes"/>
      <point x="385" y="620"/>
      <point x="385" y="620"/>
      <point x="385" y="620" type="curve" smooth="yes"/>
      <point x="385" y="620"/>
      <point x="385" y="620"/>
      <point x="385" y="620" type="curve" smooth="yes"/>
      <point x="385" y="620"/>
      <point x="385" y="620"/>
    </contour>
  </outline>
</glyph>
<glyph name="four" format="2">
  <advance width="587"/>
  <unicode hex="0034"/>
  <outline>
    <contour>
      <point x="347" y="473" type="curve" smooth="yes"/>
      <point x="347" y="207" type="line" smooth="yes"/>
      <point x="347" y="177"/>
      <point x="338" y="172"/>
      <point x="307" y="161" type="curve" smooth="yes"/>
      <point x="248" y="140" type="line" smooth="yes"/>
      <point x="151" y="106"/>
      <point x="149" y="-9"/>
      <point x="241" y="-10" type="curve" smooth="yes"/>
      <point x="495" y="-12" type="line" smooth="yes"/>
      <point x="591" y="-13"/>
      <point x="589" y="95"/>
      <point x="517" y="129" type="curve" smooth="yes"/>
      <point x="464" y="154" type="line" smooth="yes"/>
      <point x="448" y="161"/>
      <point x="439" y="172"/>
      <point x="438" y="197" type="curve" smooth="yes"/>
      <point x="431" y="475" type="line" smooth="yes"/>
      <point x="429" y="542"/>
      <point x="347" y="541"/>
    </contour>
    <contour>
      <point x="200" y="474" type="line" smooth="yes"/>
      <point x="200" y="474"/>
      <point x="200" y="474"/>
      <point x="200" y="474" type="curve" smooth="yes"/>
      <point x="200" y="474" type="line" smooth="yes"/>
      <point x="200" y="474"/>
      <point x="200" y="474"/>
      <point x="200" y="474" type="curve" smooth="yes"/>
    </contour>
    <contour>
      <point x="251" y="625" type="curve" smooth="yes"/>
      <point x="251" y="679"/>
      <point x="235" y="725"/>
      <point x="184" y="725" type="curve" smooth="yes"/>
      <point x="145" y="725"/>
      <point x="123" y="703"/>
      <point x="97" y="614" type="curve" smooth="yes"/>
      <point x="23" y="359" type="line" smooth="yes"/>
      <point x="3" y="290"/>
      <point x="23" y="247"/>
      <point x="131" y="242" type="curve" smooth="yes"/>
      <point x="517" y="223" type="line" smooth="yes"/>
      <point x="587" y="220"/>
      <point x="592" y="339"/>
      <point x="511" y="332" type="curve" smooth="yes"/>
      <point x="279" y="313" type="line" smooth="yes"/>
      <point x="247" y="310"/>
      <point x="236" y="322"/>
      <point x="236" y="355" type="curve" smooth="yes"/>
      <point x="236" y="393"/>
      <point x="251" y="554"/>
    </contour>
    <contour>
      <point x="190" y="640" type="line" smooth="yes"/>
      <point x="190" y="640"/>
      <point x="190" y="640"/>
      <point x="190" y="640" type="curve" smooth="yes"/>
      <point x="190" y="640" type="line" smooth="yes"/>
      <point x="190" y="640"/>
      <point x="190" y="640"/>
      <point x="190" y="640" type="curve" smooth="yes"/>
    </contour>
    <contour>
      <point x="463" y="-11" type="curve"/>
      <point x="405" y="-12" type="line"/>
      <point x="410" y="72"/>
      <point x="424" y="100"/>
      <point x="453" y="97" type="curve" smooth="yes"/>
      <point x="484" y="94"/>
      <point x="485" y="65"/>
    </contour>
    <contour>
      <point x="345" y="-10" type="curve"/>
      <point x="282" y="-10" type="line"/>
      <point x="267" y="64"/>
      <point x="281" y="85"/>
      <point x="303" y="86" type="curve" smooth="yes"/>
      <point x="325" y="87"/>
      <point x="339" y="74"/>
    </contour>
    <contour>
      <point x="510" y="276" type="curve" smooth="yes"/>
      <point x="510" y="276"/>
      <point x="510" y="276"/>
      <point x="510" y="276" type="curve" smooth="yes"/>
      <point x="510" y="276"/>
      <point x="510" y="276"/>
      <point x="510" y="276" type="curve" smooth="yes"/>
      <point x="510" y="276"/>
      <point x="510" y="276"/>
      <point x="510" y="276" type="curve" smooth="yes"/>
      <point x="510" y="276"/>
      <point x="510" y="276"/>
    </contour>
    <contour>
      <point x="96" y="609" type="line"/>
      <point x="184" y="590"/>
      <point x="204" y="572"/>
      <point x="197" y="545" type="curve" smooth="yes"/>
      <point x="191" y="521"/>
      <point x="168" y="516"/>
      <point x="79" y="547" type="curve"/>
    </contour>
    <contour>
      <point x="62" y="485" type="line"/>
      <point x="149" y="461"/>
      <point x="166" y="443"/>
      <point x="159" y="420" type="curve" smooth="yes"/>
      <point x="152" y="397"/>
      <point x="127" y="392"/>
      <point x="45" y="421" type="curve"/>
    </contour>
    <contour>
      <point x="395" y="567" type="curve" smooth="yes"/>
      <point x="432" y="567"/>
      <point x="451" y="594"/>
      <point x="451" y="626" type="curve" smooth="yes"/>
      <point x="451" y="661"/>
      <point x="424" y="691"/>
      <point x="390" y="691" type="curve" smooth="yes"/>
      <point x="358" y="691"/>
      <point x="327" y="662"/>
      <point x="327" y="624" type="curve" smooth="yes"/>
      <point x="327" y="589"/>
      <point x="354" y="567"/>
    </contour>
  </outline>
</glyph>
<glyph name="eight" format="2">
  <advance width="544"/>
  <unicode hex="0038"/>
  <outline>
    <contour>
      <point x="363" y="244" type="curve" smooth="yes"/>
      <point x="421" y="244"/>
      <point x="449" y="217"/>
      <point x="449" y="163" type="curve" smooth="yes"/>
      <point x="449" y="79"/>
      <point x="356" y="54"/>
      <point x="276" y="54" type="curve" smooth="yes"/>
      <point x="187" y="54"/>
      <point x="129" y="70"/>
      <point x="129" y="119" type="curve" smooth="yes"/>
      <point x="129" y="186"/>
      <point x="227" y="244"/>
    </contour>
    <contour>
      <point x="264" y="639" type="curve" smooth="yes"/>
      <point x="352" y="639"/>
      <point x="403" y="613"/>
      <point x="403" y="541" type="curve" smooth="yes"/>
      <point x="403" y="477"/>
      <point x="339" y="435"/>
      <point x="237" y="435" type="curve" smooth="yes"/>
      <point x="172" y="435"/>
      <point x="139" y="467"/>
      <point x="139" y="533" type="curve" smooth="yes"/>
      <point x="139" y="588"/>
      <point x="179" y="639"/>
    </contour>
    <contour>
      <point x="311" y="575" type="line" smooth="yes"/>
      <point x="285" y="537"/>
      <point x="337" y="502"/>
      <point x="365" y="540" type="curve" smooth="yes"/>
      <point x="489" y="705" type="line" smooth="yes"/>
      <point x="517" y="742"/>
      <point x="456" y="784"/>
      <point x="428" y="744" type="curve" smooth="yes"/>
    </contour>
    <contour>
      <point x="179" y="540" type="line" smooth="yes"/>
      <point x="200" y="500"/>
      <point x="263" y="526"/>
      <point x="240" y="573" type="curve" smooth="yes"/>
      <point x="146" y="768" type="line" smooth="yes"/>
      <point x="123" y="816"/>
      <point x="50" y="784"/>
      <point x="76" y="735" type="curve" smooth="yes"/>
    </contour>
    <contour>
      <point x="277" y="279" type="curve" smooth="yes"/>
      <point x="257" y="279"/>
      <point x="240" y="295"/>
      <point x="240" y="315" type="curve" smooth="yes"/>
      <point x="240" y="337"/>
      <point x="261" y="354"/>
      <point x="282" y="354" type="curve" smooth="yes"/>
      <point x="301" y="354"/>
      <point x="315" y="338"/>
      <point x="315" y="319" type="curve" smooth="yes"/>
      <point x="315" y="297"/>
      <point x="297" y="279"/>
    </contour>
    <contour>
      <point x="168" y="247" type="curve" smooth="yes"/>
      <point x="145" y="247"/>
      <point x="124" y="269"/>
      <point x="124" y="292" type="curve" smooth="yes"/>
      <point x="124" y="315"/>
      <point x="143" y="331"/>
      <point x="163" y="331" type="curve" smooth="yes"/>
      <point x="186" y="331"/>
      <point x="208" y="319"/>
      <point x="208" y="291" type="curve" smooth="yes"/>
      <point x="208" y="268"/>
      <point x="191" y="247"/>
    </contour>
    <contour>
      <point x="85" y="168" type="curve" smooth="yes"/>
      <point x="65" y="168"/>
      <point x="52" y="186"/>
      <point x="52" y="206" type="curve" smooth="yes"/>
      <point x="52" y="225"/>
      <point x="66" y="239"/>
      <point x="86" y="239" type="curve" smooth="yes"/>
      <point x="105" y="239"/>
      <point x="123" y="226"/>
      <point x="123" y="207" type="curve" smooth="yes"/>
      <point x="123" y="187"/>
      <point x="104" y="168"/>
    </contour>
    <contour>
      <point x="251" y="669" type="line" smooth="yes"/>
      <point x="248" y="640"/>
      <point x="310" y="637"/>
      <point x="312" y="662" type="curve" smooth="yes"/>
      <point x="313" y="673" type="line" smooth="yes"/>
      <point x="316" y="709"/>
      <point x="256" y="715"/>
      <point x="252" y="679" type="curve" smooth="yes"/>
    </contour>
    <contour>
      <point x="371" y="394" type="line"/>
      <point x="439" y="417"/>
      <point x="487" y="468"/>
      <point x="487" y="549" type="curve" smooth="yes"/>
      <point x="487" y="646"/>
      <point x="418" y="708"/>
      <point x="270" y="708" type="curve" smooth="yes"/>
      <point x="126" y="708"/>
      <point x="57" y="631"/>
      <point x="57" y="522" type="curve" smooth="yes"/>
      <point x="57" y="446"/>
      <point x="96" y="390"/>
      <point x="158" y="375" type="curve"/>
      <point x="165" y="390" type="line"/>
      <point x="82" y="368"/>
      <point x="11" y="304"/>
      <point x="11" y="194" type="curve" smooth="yes"/>
      <point x="11" y="57"/>
      <point x="108" y="-15"/>
      <point x="265" y="-15" type="curve" smooth="yes"/>
      <point x="433" y="-15"/>
      <point x="533" y="56"/>
      <point x="533" y="197" type="curve" smooth="yes"/>
      <point x="533" y="317"/>
      <point x="472" y="375"/>
      <point x="371" y="397" type="curve"/>
    </contour>
    <contour>
      <point x="468" y="-59" type="line" smooth="yes"/>
      <point x="492" y="-89"/>
      <point x="542" y="-45"/>
      <point x="512" y="-13" type="curve" smooth="yes"/>
      <point x="441" y="62" type="line" smooth="yes"/>
      <point x="418" y="86"/>
      <point x="379" y="54"/>
      <point x="399" y="28" type="curve" smooth="yes"/>
    </contour>
    <contour>
      <point x="344" y="-89" type="line" smooth="yes"/>
      <point x="356" y="-130"/>
      <point x="416" y="-111"/>
      <point x="405" y="-72" type="curve" smooth="yes"/>
      <point x="373" y="37" type="line"/>
      <point x="314" y="12" type="line"/>
    </contour>
    <contour>
      <point x="88" y="-48" type="line" smooth="yes"/>
      <point x="63" y="-89"/>
      <point x="130" y="-122"/>
      <point x="149" y="-83" type="curve" smooth="yes"/>
      <point x="199" y="23" type="line"/>
      <point x="144" y="46" type="line"/>
    </contour>
    <contour>
      <point x="221" y="-83" type="line" smooth="yes"/>
      <point x="221" y="-125"/>
      <point x="277" y="-119"/>
      <point x="279" y="-85" type="curve" smooth="yes"/>
      <point x="284" y="7" type="line" smooth="yes"/>
      <point x="286" y="49"/>
      <point x="221" y="51"/>
      <point x="221" y="-1" type="curve" smooth="yes"/>
    </contour>
  </outline>
</glyph>
<glyph name="nine" format="2">
  <advance width="515"/>
  <unicode hex="0039"/>
  <outline>
    <contour>
      <point x="20" y="495" type="curve" smooth="yes"/>
      <point x="20" y="289"/>
      <point x="296" y="350"/>
      <point x="296" y="290" type="curve" smooth="yes"/>
      <point x="296" y="236"/>
      <point x="74" y="236"/>
      <point x="74" y="100" type="curve" smooth="yes"/>
      <point x="74" y="-5"/>
      <point x="246" y="-91"/>
      <point x="317" y="48" type="curve" smooth="yes"/>
      <point x="420" y="249"/>
      <point x="496" y="392"/>
      <point x="496" y="506" type="curve" smooth="yes"/>
      <point x="496" y="630"/>
      <point x="409" y="711"/>
      <point x="250" y="711" type="curve" smooth="yes"/>
      <point x="116" y="711"/>
      <point x="20" y="631"/>
    </contour>
    <contour>
      <point x="99" y="514" type="curve" smooth="yes"/>
      <point x="99" y="588"/>
      <point x="156" y="643"/>
      <point x="260" y="643" type="curve" smooth="yes"/>
      <point x="344" y="643"/>
      <point x="412" y="591"/>
      <point x="412" y="519" type="curve" smooth="yes"/>
      <point x="412" y="448"/>
      <point x="369" y="394"/>
      <point x="272" y="394" type="curve" smooth="yes"/>
      <point x="162" y="394"/>
      <point x="99" y="434"/>
    </contour>
    <contour>
      <point x="260" y="462" type="curve" smooth="yes"/>
      <point x="294" y="462"/>
      <point x="324" y="483"/>
      <point x="324" y="514" type="curve" smooth="yes"/>
      <point x="324" y="548"/>
      <point x="293" y="574"/>
      <point x="255" y="574" type="curve" smooth="yes"/>
      <point x="221" y="574"/>
      <point x="196" y="552"/>
      <point x="196" y="516" type="curve" smooth="yes"/>
      <point x="196" y="485"/>
      <point x="224" y="462"/>
    </contour>
    <contour>
      <point x="305" y="677" type="line" smooth="yes"/>
      <point x="307" y="713"/>
      <point x="248" y="718"/>
      <point x="241" y="684" type="curve" smooth="yes"/>
      <point x="236" y="659" type="line"/>
      <point x="304" y="656" type="line"/>
    </contour>
    <contour>
      <point x="285" y="220" type="curve" smooth="yes"/>
      <point x="307" y="220"/>
      <point x="333" y="203"/>
      <point x="333" y="178" type="curve" smooth="yes"/>
      <point x="333" y="155"/>
      <point x="314" y="140"/>
      <point x="292" y="140" type="curve" smooth="yes"/>
      <point x="267" y="140"/>
      <point x="248" y="155"/>
      <point x="248" y="178" type="curve" smooth="yes"/>
      <point x="248" y="203"/>
      <point x="260" y="220"/>
    </contour>
    <contour>
      <point x="189" y="139" type="curve" smooth="yes"/>
      <point x="218" y="139"/>
      <point x="247" y="110"/>
      <point x="247" y="79" type="curve" smooth="yes"/>
      <point x="247" y="49"/>
      <point x="232" y="31"/>
      <point x="203" y="31" type="curve" smooth="yes"/>
      <point x="172" y="31"/>
      <point x="142" y="51"/>
      <point x="142" y="84" type="curve" smooth="yes"/>
      <point x="142" y="112"/>
      <point x="158" y="139"/>
    </contour>
    <contour>
      <point x="368" y="260" type="curve" smooth="yes"/>
      <point x="368" y="260"/>
      <point x="368" y="260"/>
      <point x="368" y="260" type="curve" smooth="yes"/>
      <point x="368" y="260"/>
      <point x="368" y="260"/>
      <point x="368" y="260" type="curve" smooth="yes"/>
      <point x="368" y="260"/>
      <point x="368" y="260"/>
      <point x="368" y="260" type="curve" smooth="yes"/>
      <point x="368" y="260"/>
      <point x="368" y="260"/>
    </contour>
    <contour>
      <point x="364" y="305" type="curve" smooth="yes"/>
      <point x="364" y="305"/>
      <point x="364" y="305"/>
      <point x="364" y="305" type="curve" smooth="yes"/>
      <point x="364" y="305"/>
      <point x="364" y="305"/>
      <point x="364" y="305" type="curve" smooth="yes"/>
      <point x="364" y="305"/>
      <point x="364" y="305"/>
      <point x="364" y="305" type="curve" smooth="yes"/>
      <point x="364" y="305"/>
      <point x="364" y="305"/>
    </contour>
    <contour>
      <point x="342" y="173" type="line"/>
      <point x="352" y="168" type="line" smooth="yes"/>
      <point x="380" y="154"/>
      <point x="413" y="224"/>
      <point x="384" y="237" type="curve" smooth="yes"/>
      <point x="375" y="241" type="line"/>
    </contour>
    <contour>
      <point x="203" y="178" type="line"/>
      <point x="203" y="178" type="line" smooth="yes"/>
      <point x="203" y="178"/>
      <point x="203" y="178"/>
      <point x="203" y="178" type="curve" smooth="yes"/>
      <point x="203" y="178" type="line"/>
    </contour>
  </outline>
</glyph>
<glyph name="semicolon" format="2">
  <advance width="266"/>
  <unicode hex="003B"/>
  <outline>
    <contour>
      <point x="139" y="337" type="curve" smooth="yes"/>
      <point x="192" y="337"/>
      <point x="234" y="380"/>
      <point x="234" y="434" type="curve" smooth="yes"/>
      <point x="234" y="491"/>
      <point x="200" y="537"/>
      <point x="144" y="537" type="curve" smooth="yes"/>
      <point x="92" y="537"/>
      <point x="50" y="495"/>
      <point x="50" y="442" type="curve" smooth="yes"/>
      <point x="50" y="378"/>
      <point x="86" y="337"/>
    </contour>
    <contour>
      <point x="142" y="429" type="curve" smooth="yes"/>
      <point x="142" y="429"/>
      <point x="142" y="429"/>
      <point x="142" y="429" type="curve" smooth="yes"/>
      <point x="142" y="429"/>
      <point x="142" y="429"/>
      <point x="142" y="429" type="curve" smooth="yes"/>
      <point x="142" y="429"/>
      <point x="142" y="429"/>
      <point x="142" y="429" type="curve" smooth="yes"/>
      <point x="142" y="429"/>
      <point x="142" y="429"/>
    </contour>
    <contour>
      <point x="28" y="-140" type="curve" smooth="yes"/>
      <point x="-22" y="-167"/>
      <point x="8" y="-223"/>
      <point x="55" y="-203" type="curve" smooth="yes"/>
      <point x="179" y="-149"/>
      <point x="231" y="-55"/>
      <point x="231" y="65" type="curve" smooth="yes"/>
      <point x="231" y="144"/>
      <point x="193" y="186"/>
      <point x="135" y="186" type="curve" smooth="yes"/>
      <point x="81" y="186"/>
      <point x="45" y="148"/>
      <point x="45" y="95" type="curve" smooth="yes"/>
      <point x="45" y="14"/>
      <point x="118" y="27"/>
      <point x="118" y="-43" type="curve" smooth="yes"/>
      <point x="118" y="-70"/>
      <point x="91" y="-105"/>
    </contour>
    <contour>
      <point x="154" y="-62" type="curve"/>
      <point x="134" y="-112" type="line"/>
      <point x="143" y="-118"/>
      <point x="155" y="-119"/>
      <point x="163" y="-102" type="curve" smooth="yes"/>
      <point x="174" y="-77"/>
      <point x="166" y="-69"/>
    </contour>
    <contour>
      <point x="173" y="-58" type="line" smooth="yes"/>
      <point x="165" y="-52"/>
      <point x="155" y="-50"/>
      <point x="141" y="-69" type="curve" smooth="yes"/>
      <point x="130" y="-84"/>
      <point x="132" y="-98"/>
      <point x="140" y="-103" type="curve" smooth="yes"/>
      <point x="147" y="-108" type="line" smooth="yes"/>
      <point x="156" y="-115"/>
      <point x="169" y="-114"/>
      <point x="182" y="-97" type="curve" smooth="yes"/>
      <point x="192" y="-82"/>
      <point x="188" y="-68"/>
      <point x="182" y="-64" type="curve" smooth="yes"/>
    </contour>
    <contour>
      <point x="143" y="47" type="curve" smooth="yes"/>
      <point x="120" y="47"/>
      <point x="100" y="67"/>
      <point x="100" y="90" type="curve" smooth="yes"/>
      <point x="100" y="112"/>
      <point x="120" y="132"/>
      <point x="143" y="132" type="curve" smooth="yes"/>
      <point x="165" y="132"/>
      <point x="185" y="112"/>
      <point x="185" y="90" type="curve" smooth="yes"/>
      <point x="185" y="67"/>
      <point x="165" y="47"/>
    </contour>
  </outline>
</glyph>
<glyph name="greater" format="2">
  <advance width="346"/>
  <unicode hex="003E"/>
  <outline>
    <contour>
      <point x="141" y="69" type="curve" smooth="yes"/>
      <point x="201" y="143"/>
      <point x="254" y="212"/>
      <point x="304" y="281" type="curve" smooth="yes"/>
      <point x="333" y="321"/>
      <point x="336" y="365"/>
      <point x="308" y="392" type="curve" smooth="yes"/>
      <point x="257" y="441"/>
      <point x="192" y="502"/>
      <point x="145" y="543" type="curve" smooth="yes"/>
      <point x="113" y="571"/>
      <point x="74" y="579"/>
      <point x="48" y="545" type="curve" smooth="yes"/>
      <point x="29" y="521"/>
      <point x="35" y="484"/>
      <point x="63" y="464" type="curve" smooth="yes"/>
      <point x="113" y="429"/>
      <point x="164" y="399"/>
      <point x="215" y="362" type="curve" smooth="yes"/>
      <point x="233" y="349"/>
      <point x="235" y="335"/>
      <point x="219" y="316" type="curve" smooth="yes"/>
      <point x="165" y="255"/>
      <point x="108" y="198"/>
      <point x="53" y="139" type="curve" smooth="yes"/>
      <point x="17" y="101"/>
      <point x="16" y="67"/>
      <point x="42" y="45" type="curve" smooth="yes"/>
      <point x="73" y="19"/>
      <point x="109" y="30"/>
    </contour>
  </outline>
</glyph>
<glyph name="B" format="2">
  <advance width="568"/>
  <unicode hex="0042"/>
  <unicode hex="0062"/>
  <anchor x="278" y="0" name="bottom"/>
  <anchor x="275" y="733" name="top"/>
  <outline>
    <contour>
      <point x="91" y="115" type="curve" smooth="yes"/>
      <point x="103" y="22"/>
      <point x="134" y="-12"/>
      <point x="248" y="-12" type="curve" smooth="yes"/>
      <point x="411" y="-12"/>
      <point x="537" y="66"/>
      <point x="537" y="220" type="curve" smooth="yes"/>
      <point x="537" y="336"/>
      <point x="487" y="381"/>
      <point x="394" y="399" type="curve" smooth="yes"/>
      <point x="387" y="400"/>
      <point x="383" y="403"/>
      <point x="383" y="408" type="curve" smooth="yes"/>
      <point x="383" y="428"/>
      <point x="443" y="442"/>
      <point x="443" y="538" type="curve" smooth="yes"/>
      <point x="443" y="619"/>
      <point x="374" y="661"/>
      <point x="267" y="651" type="curve" smooth="yes"/>
      <point x="115" y="637"/>
      <point x="84" y="630"/>
      <point x="68" y="614" type="curve" smooth="yes"/>
      <point x="53" y="599"/>
      <point x="47" y="577"/>
      <point x="49" y="545" type="curve" smooth="yes"/>
      <point x="59" y="401"/>
      <point x="73" y="257"/>
    </contour>
    <contour>
      <point x="267" y="588" type="curve" smooth="yes"/>
      <point x="331" y="591"/>
      <point x="363" y="571"/>
      <point x="363" y="527" type="curve" smooth="yes"/>
      <point x="363" y="485"/>
      <point x="339" y="453"/>
      <point x="275" y="423" type="curve" smooth="yes"/>
      <point x="208" y="392"/>
      <point x="167" y="396"/>
      <point x="175" y="463" type="curve" smooth="yes"/>
      <point x="187" y="573"/>
      <point x="196" y="584"/>
    </contour>
    <contour>
      <point x="172" y="130" type="curve" smooth="yes"/>
      <point x="172" y="283"/>
      <point x="206" y="348"/>
      <point x="290" y="348" type="curve" smooth="yes"/>
      <point x="356" y="348"/>
      <point x="390" y="302"/>
      <point x="331" y="192" type="curve" smooth="yes"/>
      <point x="276" y="90"/>
      <point x="247" y="65"/>
      <point x="213" y="65" type="curve" smooth="yes"/>
      <point x="188" y="65"/>
      <point x="172" y="88"/>
    </contour>
    <contour>
      <point x="448" y="218" type="curve" smooth="yes"/>
      <point x="430" y="218"/>
      <point x="416" y="232"/>
      <point x="416" y="250" type="curve" smooth="yes"/>
      <point x="416" y="268"/>
      <point x="430" y="282"/>
      <point x="448" y="282" type="curve" smooth="yes"/>
      <point x="466" y="282"/>
      <point x="480" y="268"/>
      <point x="480" y="250" type="curve" smooth="yes"/>
      <point x="480" y="232"/>
      <point x="466" y="218"/>
    </contour>
    <contour>
      <point x="424" y="114" type="curve" smooth="yes"/>
      <point x="404" y="114"/>
      <point x="387" y="131"/>
      <point x="387" y="151" type="curve" smooth="yes"/>
      <point x="387" y="171"/>
      <point x="404" y="188"/>
      <point x="424" y="188" type="curve" smooth="yes"/>
      <point x="444" y="188"/>
      <point x="461" y="171"/>
      <point x="461" y="151" type="curve" smooth="yes"/>
      <point x="461" y="131"/>
      <point x="444" y="114"/>
    </contour>
    <contour>
      <point x="350" y="47" type="curve" smooth="yes"/>
      <point x="332" y="47"/>
      <point x="318" y="61"/>
      <point x="318" y="79" type="curve" smooth="yes"/>
      <point x="318" y="97"/>
      <point x="332" y="111"/>
      <point x="350" y="111" type="curve" smooth="yes"/>
      <point x="368" y="111"/>
      <point x="382" y="97"/>
      <point x="382" y="79" type="curve" smooth="yes"/>
      <point x="382" y="61"/>
      <point x="368" y="47"/>
    </contour>
    <contour>
      <point x="171" y="622" type="line"/>
      <point x="160" y="731"/>
      <point x="152" y="758"/>
      <point x="119" y="758" type="curve" smooth="yes"/>
      <point x="78" y="758"/>
      <point x="79" y="729"/>
      <point x="110" y="611" type="curve"/>
    </contour>
    <contour>
      <point x="302" y="629" type="line"/>
      <point x="313" y="722"/>
      <point x="317" y="751"/>
      <point x="278" y="751" type="curve" smooth="yes"/>
      <point x="249" y="751"/>
      <point x="243" y="730"/>
      <point x="232" y="633" type="curve"/>
    </contour>
    <contour>
      <point x="386" y="577" type="line"/>
      <point x="474" y="649"/>
      <point x="502" y="671"/>
      <point x="481" y="697" type="curve" smooth="yes"/>
      <point x="455" y="730"/>
      <point x="430" y="705"/>
      <point x="353" y="621" type="curve"/>
    </contour>
    <contour>
      <point x="354" y="595" type="line"/>
      <point x="362" y="613"/>
      <point x="365" y="625"/>
      <point x="344" y="634" type="curve" smooth="yes"/>
      <point x="319" y="643"/>
      <point x="312" y="634"/>
      <point x="307" y="607" type="curve"/>
    </contour>
    <contour>
      <point x="412" y="527" type="curve" smooth="yes"/>
      <point x="421" y="528"/>
      <point x="425" y="537"/>
      <point x="425" y="547" type="curve" smooth="yes"/>
      <point x="425" y="561"/>
      <point x="417" y="576"/>
      <point x="404" y="575" type="curve" smooth="yes"/>
      <point x="395" y="574"/>
      <point x="385" y="572"/>
      <point x="378" y="570" type="curve" smooth="yes"/>
      <point x="370" y="568"/>
      <point x="366" y="559"/>
      <point x="366" y="549" type="curve" smooth="yes"/>
      <point x="366" y="537"/>
      <point x="372" y="525"/>
      <point x="382" y="525" type="curve" smooth="yes"/>
      <point x="392" y="525"/>
      <point x="402" y="526"/>
    </contour>
    <contour>
      <point x="393" y="472" type="line"/>
      <point x="479" y="441"/>
      <point x="505" y="438"/>
      <point x="517" y="464" type="curve" smooth="yes"/>
      <point x="531" y="495"/>
      <point x="509" y="511"/>
      <point x="417" y="530" type="curve"/>
    </contour>
    <contour>
      <point x="205" y="22" type="curve" smooth="yes"/>
      <point x="214" y="36"/>
      <point x="206" y="51"/>
      <point x="194" y="58" type="curve" smooth="yes"/>
      <point x="181" y="66"/>
      <point x="161" y="65"/>
      <point x="152" y="48" type="curve" smooth="yes"/>
      <point x="150" y="44"/>
      <point x="148" y="40"/>
      <point x="146" y="36" type="curve" smooth="yes"/>
      <point x="138" y="21"/>
      <point x="150" y="6"/>
      <point x="165" y="1" type="curve" smooth="yes"/>
      <point x="177" y="-2"/>
      <point x="191" y="0"/>
      <point x="200" y="14" type="curve" smooth="yes"/>
      <point x="202" y="17"/>
      <point x="203" y="19"/>
    </contour>
  </outline>
</glyph>
<glyph name="C" format="2">
  <advance width="514"/>
  <unicode hex="0043"/>
  <unicode hex="0063"/>
  <anchor x="291" y="-35" name="bottom"/>
  <anchor x="265" y="0" name="cedilla"/>
  <anchor x="311" y="798" name="top"/>
  <outline>
    <contour>
      <point x="290" y="-12" type="curve" smooth="yes"/>
      <point x="366" y="-12"/>
      <point x="417" y="13"/>
      <point x="448" y="46" type="curve" smooth="yes"/>
      <point x="505" y="106"/>
      <point x="486" y="237"/>
      <point x="411" y="237" type="curve" smooth="yes"/>
      <point x="397" y="237"/>
      <point x="386" y="235"/>
      <point x="375" y="231" type="curve"/>
      <point x="393" y="106"/>
      <point x="383" y="82"/>
      <point x="354" y="82" type="curve" smooth="yes"/>
      <point x="330" y="82"/>
      <point x="317" y="96"/>
      <point x="320" y="217" type="curve"/>
      <point x="303" y="214"/>
      <point x="281" y="210"/>
      <point x="265" y="210" type="curve"/>
      <point x="263" y="129"/>
      <point x="251" y="113"/>
      <point x="232" y="112" type="curve" smooth="yes"/>
      <point x="207" y="111"/>
      <point x="195" y="132"/>
      <point x="201" y="218" type="curve"/>
      <point x="195" y="220"/>
      <point x="191" y="221"/>
      <point x="183" y="225" type="curve" smooth="yes"/>
      <point x="157" y="238"/>
      <point x="130" y="281"/>
      <point x="130" y="352" type="curve" smooth="yes"/>
      <point x="130" y="519"/>
      <point x="220" y="620"/>
      <point x="327" y="633" type="curve" smooth="yes"/>
      <point x="335" y="634"/>
      <point x="344" y="635"/>
      <point x="350" y="635" type="curve" smooth="yes"/>
      <point x="357" y="635"/>
      <point x="364" y="636"/>
      <point x="374" y="635" type="curve" smooth="yes"/>
      <point x="383" y="634"/>
      <point x="391" y="633"/>
      <point x="400" y="630" type="curve" smooth="yes"/>
      <point x="407" y="628"/>
      <point x="414" y="625"/>
      <point x="419" y="623" type="curve" smooth="yes"/>
      <point x="426" y="620"/>
      <point x="434" y="616"/>
      <point x="441" y="612" type="curve" smooth="yes"/>
      <point x="449" y="607"/>
      <point x="460" y="601"/>
      <point x="475" y="601" type="curve" smooth="yes"/>
      <point x="490" y="601"/>
      <point x="504" y="610"/>
      <point x="504" y="632" type="curve" smooth="yes"/>
      <point x="504" y="677"/>
      <point x="437" y="711"/>
      <point x="357" y="711" type="curve" smooth="yes"/>
      <point x="177" y="711"/>
      <point x="40" y="560"/>
      <point x="40" y="314" type="curve" smooth="yes"/>
      <point x="40" y="85"/>
      <point x="147" y="-12"/>
    </contour>
    <contour>
      <point x="345" y="762" type="curve" smooth="yes"/>
      <point x="338" y="804"/>
      <point x="320" y="812"/>
      <point x="294" y="808" type="curve" smooth="yes"/>
      <point x="270" y="804"/>
      <point x="255" y="788"/>
      <point x="262" y="747" type="curve" smooth="yes"/>
      <point x="274" y="685"/>
      <point x="290" y="606"/>
      <point x="304" y="543" type="curve" smooth="yes"/>
      <point x="311" y="514"/>
      <point x="323" y="497"/>
      <point x="348" y="501" type="curve" smooth="yes"/>
      <point x="373" y="505"/>
      <point x="379" y="524"/>
      <point x="375" y="551" type="curve" smooth="yes"/>
      <point x="366" y="619"/>
      <point x="355" y="698"/>
    </contour>
    <contour>
      <point x="165" y="687" type="curve" smooth="yes"/>
      <point x="140" y="715"/>
      <point x="112" y="727"/>
      <point x="94" y="710" type="curve" smooth="yes"/>
      <point x="74" y="692"/>
      <point x="78" y="673"/>
      <point x="103" y="639" type="curve" smooth="yes"/>
      <point x="115" y="623"/>
      <point x="130" y="606"/>
      <point x="151" y="586" type="curve" smooth="yes"/>
      <point x="168" y="569"/>
      <point x="186" y="567"/>
      <point x="202" y="584" type="curve" smooth="yes"/>
      <point x="216" y="597"/>
      <point x="216" y="615"/>
      <point x="204" y="634" type="curve" smooth="yes"/>
      <point x="191" y="655"/>
      <point x="178" y="671"/>
    </contour>
    <contour>
      <point x="278" y="330" type="curve" smooth="yes"/>
      <point x="309" y="330"/>
      <point x="334" y="355"/>
      <point x="334" y="386" type="curve" smooth="yes"/>
      <point x="334" y="417"/>
      <point x="309" y="442"/>
      <point x="278" y="442" type="curve" smooth="yes"/>
      <point x="247" y="442"/>
      <point x="222" y="417"/>
      <point x="222" y="386" type="curve" smooth="yes"/>
      <point x="222" y="355"/>
      <point x="247" y="330"/>
    </contour>
    <contour>
      <point x="429" y="63" type="curve" smooth="yes"/>
      <point x="422" y="74"/>
      <point x="408" y="74"/>
      <point x="398" y="69" type="curve" smooth="yes"/>
      <point x="388" y="64"/>
      <point x="381" y="55"/>
      <point x="386" y="47" type="curve" smooth="yes"/>
      <point x="388" y="44"/>
      <point x="389" y="42"/>
      <point x="391" y="39" type="curve" smooth="yes"/>
      <point x="396" y="32"/>
      <point x="410" y="33"/>
      <point x="420" y="38" type="curve" smooth="yes"/>
      <point x="430" y="42"/>
      <point x="437" y="50"/>
      <point x="432" y="58" type="curve" smooth="yes"/>
      <point x="431" y="60"/>
      <point x="430" y="61"/>
    </contour>
    <contour>
      <point x="306" y="50" type="curve" smooth="yes"/>
      <point x="304" y="67"/>
      <point x="285" y="73"/>
      <point x="267" y="72" type="curve" smooth="yes"/>
      <point x="251" y="70"/>
      <point x="236" y="62"/>
      <point x="237" y="48" type="curve" smooth="yes"/>
      <point x="237" y="44"/>
      <point x="238" y="41"/>
      <point x="238" y="37" type="curve" smooth="yes"/>
      <point x="239" y="21"/>
      <point x="256" y="16"/>
      <point x="273" y="17" type="curve" smooth="yes"/>
      <point x="291" y="19"/>
      <point x="309" y="28"/>
      <point x="307" y="41" type="curve" smooth="yes"/>
      <point x="307" y="44"/>
      <point x="306" y="47"/>
    </contour>
  </outline>
</glyph>
<glyph name="F" format="2">
  <advance width="460"/>
  <unicode hex="0046"/>
  <unicode hex="0066"/>
  <anchor x="162" y="0" name="bottom"/>
  <anchor x="273" y="700" name="top"/>
  <outline>
    <contour>
      <point x="55" y="51" type="curve" smooth="yes"/>
      <point x="55" y="-20"/>
      <point x="103" y="-52"/>
      <point x="160" y="-52" type="curve" smooth="yes"/>
      <point x="236" y="-52"/>
      <point x="306" y="13"/>
      <point x="262" y="113" type="curve" smooth="yes"/>
      <point x="235" y="174"/>
      <point x="203" y="229"/>
      <point x="178" y="283" type="curve" smooth="yes"/>
      <point x="168" y="305"/>
      <point x="182" y="322"/>
      <point x="207" y="313" type="curve" smooth="yes"/>
      <point x="237" y="302"/>
      <point x="262" y="285"/>
      <point x="307" y="272" type="curve" smooth="yes"/>
      <point x="375" y="252"/>
      <point x="394" y="326"/>
      <point x="341" y="348" type="curve" smooth="yes"/>
      <point x="311" y="361"/>
      <point x="284" y="365"/>
      <point x="260" y="375" type="curve" smooth="yes"/>
      <point x="235" y="385"/>
      <point x="239" y="410"/>
      <point x="267" y="412" type="curve" smooth="yes"/>
      <point x="304" y="414"/>
      <point x="340" y="411"/>
      <point x="377" y="413" type="curve" smooth="yes"/>
      <point x="445" y="417"/>
      <point x="442" y="505"/>
      <point x="372" y="499" type="curve" smooth="yes"/>
      <point x="319" y="494"/>
      <point x="267" y="481"/>
      <point x="211" y="474" type="curve" smooth="yes"/>
      <point x="185" y="471"/>
      <point x="179" y="481"/>
      <point x="175" y="508" type="curve" smooth="yes"/>
      <point x="173" y="523"/>
      <point x="171" y="539"/>
      <point x="171" y="554" type="curve" smooth="yes"/>
      <point x="171" y="573"/>
      <point x="172" y="586"/>
      <point x="182" y="596" type="curve" smooth="yes"/>
      <point x="190" y="604"/>
      <point x="197" y="608"/>
      <point x="239" y="609" type="curve" smooth="yes"/>
      <point x="284" y="610"/>
      <point x="328" y="607"/>
      <point x="375" y="607" type="curve" smooth="yes"/>
      <point x="422" y="607"/>
      <point x="462" y="610"/>
      <point x="462" y="655" type="curve" smooth="yes"/>
      <point x="462" y="681"/>
      <point x="445" y="708"/>
      <point x="410" y="705" type="curve" smooth="yes"/>
      <point x="323" y="699"/>
      <point x="243" y="690"/>
      <point x="167" y="677" type="curve" smooth="yes"/>
      <point x="123" y="669"/>
      <point x="100" y="648"/>
      <point x="95" y="603" type="curve" smooth="yes"/>
      <point x="82" y="480"/>
      <point x="72" y="357"/>
      <point x="66" y="234" type="curve"/>
      <point x="122" y="240"/>
      <point x="145" y="232"/>
      <point x="145" y="205" type="curve" smooth="yes"/>
      <point x="145" y="184"/>
      <point x="120" y="176"/>
      <point x="59" y="171" type="curve"/>
      <point x="57" y="152"/>
      <point x="57" y="133"/>
      <point x="57" y="113" type="curve"/>
      <point x="139" y="126"/>
      <point x="185" y="127"/>
      <point x="185" y="95" type="curve" smooth="yes"/>
      <point x="185" y="62"/>
      <point x="149" y="58"/>
      <point x="55" y="58" type="curve"/>
      <point x="55" y="56"/>
      <point x="55" y="53"/>
    </contour>
    <contour>
      <point x="225" y="654" type="curve" smooth="yes"/>
      <point x="225" y="654"/>
      <point x="225" y="654"/>
      <point x="225" y="654" type="curve" smooth="yes"/>
      <point x="225" y="654"/>
      <point x="225" y="654"/>
      <point x="225" y="654" type="curve" smooth="yes"/>
      <point x="225" y="654"/>
      <point x="225" y="654"/>
      <point x="225" y="654" type="curve" smooth="yes"/>
      <point x="225" y="654"/>
      <point x="225" y="654"/>
    </contour>
    <contour>
      <point x="280" y="631" type="curve" smooth="yes"/>
      <point x="280" y="631"/>
      <point x="280" y="631"/>
      <point x="280" y="631" type="curve" smooth="yes"/>
      <point x="280" y="631"/>
      <point x="280" y="631"/>
      <point x="280" y="631" type="curve" smooth="yes"/>
      <point x="280" y="631"/>
      <point x="280" y="631"/>
      <point x="280" y="631" type="curve" smooth="yes"/>
      <point x="280" y="631"/>
      <point x="280" y="631"/>
    </contour>
    <contour>
      <point x="345" y="638" type="curve" smooth="yes"/>
      <point x="345" y="638"/>
      <point x="345" y="638"/>
      <point x="345" y="638" type="curve" smooth="yes"/>
      <point x="345" y="638"/>
      <point x="345" y="638"/>
      <point x="345" y="638" type="curve" smooth="yes"/>
      <point x="345" y="638"/>
      <point x="345" y="638"/>
      <point x="345" y="638" type="curve" smooth="yes"/>
      <point x="345" y="638"/>
      <point x="345" y="638"/>
    </contour>
  </outline>
</glyph>
<glyph name="J" format="2">
  <advance width="503"/>
  <unicode hex="004A"/>
  <unicode hex="006A"/>
  <anchor x="228" y="0" name="bottom"/>
  <anchor x="250" y="718" name="top"/>
  <outline>
    <contour>
      <point x="212" y="-17" type="curve" smooth="yes"/>
      <point x="365" y="-17"/>
      <point x="445" y="92"/>
      <point x="429" y="281" type="curve" smooth="yes"/>
      <point x="420" y="389"/>
      <point x="408" y="497"/>
      <point x="393" y="607" type="curve" smooth="yes"/>
      <point x="383" y="679"/>
      <point x="366" y="703"/>
      <point x="323" y="708" type="curve" smooth="yes"/>
      <point x="262" y="716"/>
      <point x="187" y="721"/>
      <point x="135" y="722" type="curve" smooth="yes"/>
      <point x="86" y="723"/>
      <point x="62" y="708"/>
      <point x="62" y="677" type="curve" smooth="yes"/>
      <point x="62" y="644"/>
      <point x="84" y="631"/>
      <point x="137" y="631" type="curve" smooth="yes"/>
      <point x="174" y="631"/>
      <point x="218" y="636"/>
      <point x="262" y="636" type="curve" smooth="yes"/>
      <point x="299" y="636"/>
      <point x="310" y="627"/>
      <point x="315" y="586" type="curve" smooth="yes"/>
      <point x="325" y="512"/>
      <point x="335" y="422"/>
      <point x="340" y="338" type="curve" smooth="yes"/>
      <point x="345" y="262"/>
      <point x="315" y="224"/>
      <point x="224" y="224" type="curve" smooth="yes"/>
      <point x="171" y="224"/>
      <point x="147" y="236"/>
      <point x="113" y="236" type="curve" smooth="yes"/>
      <point x="51" y="236"/>
      <point x="22" y="180"/>
      <point x="22" y="125" type="curve" smooth="yes"/>
      <point x="22" y="29"/>
      <point x="102" y="-17"/>
    </contour>
    <contour>
      <point x="442" y="554" type="curve" smooth="yes"/>
      <point x="484" y="563"/>
      <point x="496" y="572"/>
      <point x="496" y="591" type="curve" smooth="yes"/>
      <point x="496" y="616"/>
      <point x="478" y="623"/>
      <point x="431" y="617" type="curve" smooth="yes"/>
      <point x="328" y="604"/>
      <point x="215" y="588"/>
      <point x="107" y="571" type="curve" smooth="yes"/>
      <point x="64" y="564"/>
      <point x="42" y="550"/>
      <point x="42" y="527" type="curve" smooth="yes"/>
      <point x="42" y="488"/>
      <point x="75" y="484"/>
      <point x="125" y="493" type="curve" smooth="yes"/>
      <point x="234" y="512"/>
      <point x="346" y="533"/>
    </contour>
    <contour>
      <point x="393" y="495" type="curve"/>
      <point x="395" y="431" type="line"/>
      <point x="484" y="431"/>
      <point x="503" y="437"/>
      <point x="503" y="467" type="curve" smooth="yes"/>
      <point x="503" y="492"/>
      <point x="491" y="503"/>
    </contour>
    <contour>
      <point x="205" y="313" type="curve" smooth="yes"/>
      <point x="237" y="313"/>
      <point x="263" y="339"/>
      <point x="263" y="371" type="curve" smooth="yes"/>
      <point x="263" y="403"/>
      <point x="237" y="429"/>
      <point x="205" y="429" type="curve" smooth="yes"/>
      <point x="173" y="429"/>
      <point x="147" y="403"/>
      <point x="147" y="371" type="curve" smooth="yes"/>
      <point x="147" y="339"/>
      <point x="173" y="313"/>
    </contour>
    <contour>
      <point x="211" y="376" type="curve" smooth="yes"/>
      <point x="211" y="376"/>
      <point x="211" y="376"/>
      <point x="211" y="376" type="curve" smooth="yes"/>
      <point x="211" y="376"/>
      <point x="211" y="376"/>
      <point x="211" y="376" type="curve" smooth="yes"/>
      <point x="211" y="376"/>
      <point x="211" y="376"/>
      <point x="211" y="376" type="curve" smooth="yes"/>
      <point x="211" y="376"/>
      <point x="211" y="376"/>
    </contour>
    <contour>
      <point x="113" y="89" type="curve" smooth="yes"/>
      <point x="96" y="89"/>
      <point x="82" y="103"/>
      <point x="82" y="120" type="curve" smooth="yes"/>
      <point x="82" y="138"/>
      <point x="96" y="151"/>
      <point x="113" y="151" type="curve" smooth="yes"/>
      <point x="131" y="151"/>
      <point x="144" y="138"/>
      <point x="144" y="120" type="curve" smooth="yes"/>
      <point x="144" y="103"/>
      <point x="131" y="89"/>
    </contour>
    <contour>
      <point x="217" y="62" type="curve" smooth="yes"/>
      <point x="195" y="62"/>
      <point x="178" y="79"/>
      <point x="178" y="101" type="curve" smooth="yes"/>
      <point x="178" y="123"/>
      <point x="195" y="139"/>
      <point x="217" y="139" type="curve" smooth="yes"/>
      <point x="239" y="139"/>
      <point x="255" y="123"/>
      <point x="255" y="101" type="curve" smooth="yes"/>
      <point x="255" y="79"/>
      <point x="239" y="62"/>
    </contour>
    <contour>
      <point x="321" y="94" type="curve" smooth="yes"/>
      <point x="302" y="94"/>
      <point x="287" y="109"/>
      <point x="287" y="128" type="curve" smooth="yes"/>
      <point x="287" y="147"/>
      <point x="302" y="161"/>
      <point x="321" y="161" type="curve" smooth="yes"/>
      <point x="340" y="161"/>
      <point x="354" y="147"/>
      <point x="354" y="128" type="curve" smooth="yes"/>
      <point x="354" y="109"/>
      <point x="340" y="94"/>
    </contour>
  </outline>
</glyph>
<glyph name="M" format="2">
  <advance width="768"/>
  <unicode hex="004D"/>
  <unicode hex="006D"/>
  <anchor x="377" y="0" name="bottom"/>
  <anchor x="389" y="700" name="top"/>
  <outline>
    <contour>
      <point x="34" y="100" type="curve" smooth="yes"/>
      <point x="29" y="49"/>
      <point x="44" y="22"/>
      <point x="82" y="22" type="curve" smooth="yes"/>
      <point x="117" y="22"/>
      <point x="133" y="45"/>
      <point x="135" y="89" type="curve" smooth="yes"/>
      <point x="139" y="162"/>
      <point x="137" y="249"/>
      <point x="139" y="308" type="curve" smooth="yes"/>
      <point x="140" y="352"/>
      <point x="172" y="359"/>
      <point x="200" y="325" type="curve" smooth="yes"/>
      <point x="233" y="286"/>
      <point x="275" y="225"/>
      <point x="321" y="169" type="curve" smooth="yes"/>
      <point x="341" y="143"/>
      <point x="361" y="128"/>
      <point x="388" y="128" type="curve" smooth="yes"/>
      <point x="415" y="128"/>
      <point x="435" y="141"/>
      <point x="450" y="163" type="curve" smooth="yes"/>
      <point x="493" y="225"/>
      <point x="524" y="283"/>
      <point x="562" y="338" type="curve" smooth="yes"/>
      <point x="588" y="375"/>
      <point x="625" y="369"/>
      <point x="626" y="318" type="curve" smooth="yes"/>
      <point x="628" y="233"/>
      <point x="623" y="156"/>
      <point x="625" y="63" type="curve" smooth="yes"/>
      <point x="626" y="17"/>
      <point x="643" y="-9"/>
      <point x="681" y="-9" type="curve" smooth="yes"/>
      <point x="719" y="-9"/>
      <point x="738" y="18"/>
      <point x="734" y="67" type="curve" smooth="yes"/>
      <point x="720" y="251"/>
      <point x="702" y="438"/>
      <point x="680" y="601" type="curve" smooth="yes"/>
      <point x="671" y="670"/>
      <point x="646" y="705"/>
      <point x="594" y="705" type="curve" smooth="yes"/>
      <point x="544" y="705"/>
      <point x="514" y="678"/>
      <point x="493" y="596" type="curve" smooth="yes"/>
      <point x="465" y="488"/>
      <point x="439" y="345"/>
      <point x="414" y="250" type="curve" smooth="yes"/>
      <point x="410" y="233"/>
      <point x="404" y="224"/>
      <point x="392" y="224" type="curve" smooth="yes"/>
      <point x="382" y="224"/>
      <point x="375" y="232"/>
      <point x="370" y="249" type="curve" smooth="yes"/>
      <point x="352" y="309"/>
      <point x="334" y="380"/>
      <point x="315" y="452" type="curve"/>
      <point x="214" y="420"/>
      <point x="173" y="418"/>
      <point x="168" y="452" type="curve" smooth="yes"/>
      <point x="164" y="483"/>
      <point x="201" y="495"/>
      <point x="301" y="507" type="curve"/>
      <point x="296" y="529"/>
      <point x="291" y="550"/>
      <point x="285" y="569" type="curve"/>
      <point x="209" y="549"/>
      <point x="171" y="544"/>
      <point x="166" y="574" type="curve" smooth="yes"/>
      <point x="161" y="603"/>
      <point x="184" y="617"/>
      <point x="267" y="632" type="curve"/>
      <point x="266" y="637"/>
      <point x="264" y="644"/>
      <point x="262" y="650" type="curve" smooth="yes"/>
      <point x="247" y="705"/>
      <point x="224" y="736"/>
      <point x="181" y="736" type="curve" smooth="yes"/>
      <point x="139" y="736"/>
      <point x="111" y="710"/>
      <point x="102" y="652" type="curve" smooth="yes"/>
      <point x="96" y="613"/>
      <point x="91" y="574"/>
      <point x="85" y="534" type="curve" smooth="yes"/>
      <point x="83" y="519"/>
      <point x="81" y="504"/>
      <point x="79" y="489" type="curve" smooth="yes"/>
      <point x="77" y="477"/>
      <point x="76" y="465"/>
      <point x="74" y="453" type="curve" smooth="yes"/>
      <point x="72" y="438"/>
      <point x="70" y="423"/>
      <point x="68" y="408" type="curve" smooth="yes"/>
      <point x="67" y="397"/>
      <point x="66" y="386"/>
      <point x="64" y="374" type="curve" smooth="yes"/>
      <point x="63" y="365"/>
      <point x="62" y="355"/>
      <point x="61" y="345" type="curve" smooth="yes"/>
      <point x="51" y="264"/>
      <point x="42" y="182"/>
    </contour>
    <contour>
      <point x="591" y="470" type="curve" smooth="yes"/>
      <point x="566" y="470"/>
      <point x="545" y="491"/>
      <point x="545" y="516" type="curve" smooth="yes"/>
      <point x="545" y="541"/>
      <point x="566" y="562"/>
      <point x="591" y="562" type="curve" smooth="yes"/>
      <point x="616" y="562"/>
      <point x="637" y="541"/>
      <point x="637" y="516" type="curve" smooth="yes"/>
      <point x="637" y="491"/>
      <point x="616" y="470"/>
    </contour>
    <contour>
      <point x="390" y="161" type="curve" smooth="yes"/>
      <point x="405" y="161"/>
      <point x="419" y="174"/>
      <point x="419" y="191" type="curve" smooth="yes"/>
      <point x="419" y="207"/>
      <point x="405" y="221"/>
      <point x="390" y="221" type="curve" smooth="yes"/>
      <point x="372" y="221"/>
      <point x="359" y="207"/>
      <point x="359" y="191" type="curve" smooth="yes"/>
      <point x="359" y="174"/>
      <point x="372" y="161"/>
    </contour>
    <contour>
      <point x="699" y="63" type="curve" smooth="yes"/>
      <point x="716" y="63"/>
      <point x="725" y="71"/>
      <point x="725" y="91" type="curve" smooth="yes"/>
      <point x="725" y="107"/>
      <point x="716" y="123"/>
      <point x="699" y="124" type="curve" smooth="yes"/>
      <point x="693" y="124"/>
      <point x="686" y="124"/>
      <point x="680" y="124" type="curve" smooth="yes"/>
      <point x="671" y="124"/>
      <point x="654" y="118"/>
      <point x="654" y="95" type="curve" smooth="yes"/>
      <point x="654" y="68"/>
      <point x="666" y="63"/>
      <point x="678" y="63" type="curve" smooth="yes"/>
      <point x="685" y="63"/>
      <point x="692" y="63"/>
    </contour>
  </outline>
</glyph>
<glyph name="Q" format="2">
  <advance width="627"/>
  <unicode hex="0051"/>
  <unicode hex="0071"/>
  <anchor x="258" y="0" name="bottom"/>
  <anchor x="333" y="700" name="top"/>
  <outline>
    <contour>
      <point x="194" y="-22"/>
      <point x="235" y="-57"/>
      <point x="289" y="-95" type="curve" smooth="yes"/>
      <point x="320" y="-117"/>
      <point x="369" y="-146"/>
      <point x="420" y="-166" type="curve" smooth="yes"/>
      <point x="483" y="-191"/>
      <point x="540" y="-180"/>
      <point x="540" y="-110" type="curve" smooth="yes"/>
      <point x="540" y="-62"/>
      <point x="519" y="-40"/>
      <point x="453" y="-32" type="curve" smooth="yes"/>
      <point x="408" y="-27"/>
      <point x="376" y="-29"/>
      <point x="338" y="-23" type="curve" smooth="yes"/>
      <point x="313" y="-19"/>
      <point x="314" y="8"/>
      <point x="336" y="13" type="curve" smooth="yes"/>
      <point x="494" y="51"/>
      <point x="587" y="191"/>
      <point x="587" y="392" type="curve" smooth="yes"/>
      <point x="587" y="602"/>
      <point x="485" y="718"/>
      <point x="335" y="718" type="curve" smooth="yes"/>
      <point x="160" y="718"/>
      <point x="40" y="590"/>
      <point x="40" y="327" type="curve" smooth="yes"/>
      <point x="40" y="177"/>
      <point x="77" y="95"/>
      <point x="150" y="22" type="curve" smooth="yes"/>
    </contour>
    <contour>
      <point x="301" y="74" type="curve" smooth="yes"/>
      <point x="203" y="74"/>
      <point x="132" y="147"/>
      <point x="133" y="251" type="curve" smooth="yes"/>
      <point x="134" y="398"/>
      <point x="236" y="506"/>
      <point x="350" y="506" type="curve" smooth="yes"/>
      <point x="451" y="506"/>
      <point x="501" y="431"/>
      <point x="501" y="340" type="curve" smooth="yes"/>
      <point x="501" y="195"/>
      <point x="413" y="74"/>
    </contour>
    <contour>
      <point x="147" y="453" type="curve" smooth="yes"/>
      <point x="127" y="453"/>
      <point x="110" y="470"/>
      <point x="110" y="490" type="curve" smooth="yes"/>
      <point x="110" y="510"/>
      <point x="127" y="527"/>
      <point x="147" y="527" type="curve" smooth="yes"/>
      <point x="167" y="527"/>
      <point x="184" y="510"/>
      <point x="184" y="490" type="curve" smooth="yes"/>
      <point x="184" y="470"/>
      <point x="167" y="453"/>
    </contour>
    <contour>
      <point x="246" y="531" type="curve" smooth="yes"/>
      <point x="220" y="531"/>
      <point x="199" y="552"/>
      <point x="199" y="578" type="curve" smooth="yes"/>
      <point x="199" y="604"/>
      <point x="220" y="625"/>
      <point x="246" y="625" type="curve" smooth="yes"/>
      <point x="272" y="625"/>
      <point x="293" y="604"/>
      <point x="293" y="578" type="curve" smooth="yes"/>
      <point x="293" y="552"/>
      <point x="272" y="531"/>
    </contour>
    <contour>
      <point x="370" y="567" type="curve" smooth="yes"/>
      <point x="350" y="567"/>
      <point x="333" y="584"/>
      <point x="333" y="604" type="curve" smooth="yes"/>
      <point x="333" y="624"/>
      <point x="350" y="641"/>
      <point x="370" y="641" type="curve" smooth="yes"/>
      <point x="390" y="641"/>
      <point x="407" y="624"/>
      <point x="407" y="604" type="curve" smooth="yes"/>
      <point x="407" y="584"/>
      <point x="390" y="567"/>
    </contour>
    <contour>
      <point x="413" y="107" type="curve" smooth="yes"/>
      <point x="403" y="123"/>
      <point x="391" y="139"/>
      <point x="379" y="153" type="curve" smooth="yes"/>
      <point x="353" y="184"/>
      <point x="334" y="205"/>
      <point x="309" y="189" type="curve" smooth="yes"/>
      <point x="289" y="175"/>
      <point x="294" y="154"/>
      <point x="317" y="114" type="curve" smooth="yes"/>
      <point x="325" y="100"/>
      <point x="334" y="85"/>
      <point x="344" y="71" type="curve" smooth="yes"/>
      <point x="362" y="46"/>
      <point x="380" y="38"/>
      <point x="404" y="55" type="curve" smooth="yes"/>
      <point x="427" y="71"/>
      <point x="426" y="86"/>
    </contour>
    <contour>
      <point x="509" y="251" type="curve" smooth="yes"/>
      <point x="483" y="266"/>
      <point x="458" y="278"/>
      <point x="431" y="290" type="curve" smooth="yes"/>
      <point x="394" y="307"/>
      <point x="364" y="316"/>
      <point x="352" y="293" type="curve" smooth="yes"/>
      <point x="341" y="272"/>
      <point x="359" y="253"/>
      <point x="394" y="230" type="curve" smooth="yes"/>
      <point x="422" y="212"/>
      <point x="450" y="195"/>
      <point x="481" y="180" type="curve" smooth="yes"/>
      <point x="506" y="168"/>
      <point x="526" y="166"/>
      <point x="539" y="192" type="curve" smooth="yes"/>
      <point x="550" y="214"/>
      <point x="537" y="235"/>
    </contour>
  </outline>
</glyph>
<glyph name="backslash" format="2">
  <advance width="402"/>
  <unicode hex="005C"/>
  <outline>
    <contour>
      <point x="365" y="-118" type="curve" smooth="yes"/>
      <point x="401" y="-105"/>
      <point x="405" y="-83"/>
      <point x="387" y="-33" type="curve" smooth="yes"/>
      <point x="293" y="234"/>
      <point x="190" y="522"/>
      <point x="93" y="781" type="curve" smooth="yes"/>
      <point x="76" y="826"/>
      <point x="53" y="834"/>
      <point x="29" y="826" type="curve" smooth="yes"/>
      <point x="1" y="817"/>
      <point x="-3" y="795"/>
      <point x="10" y="754" type="curve" smooth="yes"/>
      <point x="96" y="483"/>
      <point x="192" y="193"/>
      <point x="287" y="-77" type="curve" smooth="yes"/>
      <point x="302" y="-121"/>
      <point x="334" y="-130"/>
    </contour>
  </outline>
</glyph>
<glyph name="asciicircum" format="2">
  <advance width="522"/>
  <unicode hex="005E"/>
  <outline>
    <contour>
      <point x="62" y="515" type="curve" smooth="yes"/>
      <point x="43" y="483"/>
      <point x="48" y="458"/>
      <point x="65" y="447" type="curve" smooth="yes"/>
      <point x="81" y="436"/>
      <point x="104" y="438"/>
      <point x="130" y="466" type="curve" smooth="yes"/>
      <point x="174" y="515"/>
      <point x="221" y="574"/>
      <point x="260" y="616" type="curve" smooth="yes"/>
      <point x="280" y="637"/>
      <point x="292" y="634"/>
      <point x="302" y="608" type="curve" smooth="yes"/>
      <point x="327" y="545"/>
      <point x="351" y="469"/>
      <point x="379" y="399" type="curve" smooth="yes"/>
      <point x="393" y="363"/>
      <point x="422" y="355"/>
      <point x="447" y="366" type="curve" smooth="yes"/>
      <point x="472" y="377"/>
      <point x="481" y="400"/>
      <point x="465" y="443" type="curve" smooth="yes"/>
      <point x="431" y="532"/>
      <point x="393" y="621"/>
      <point x="355" y="701" type="curve" smooth="yes"/>
      <point x="337" y="737"/>
      <point x="307" y="757"/>
      <point x="272" y="757" type="curve" smooth="yes"/>
      <point x="240" y="757"/>
      <point x="208" y="739"/>
      <point x="185" y="705" type="curve" smooth="yes"/>
      <point x="144" y="645"/>
      <point x="101" y="579"/>
    </contour>
  </outline>
</glyph>
<glyph name="underscore" format="2">
  <advance width="520"/>
  <unicode hex="005F"/>
  <outline>
    <contour>
      <point x="95" y="-34" type="curve" smooth="yes"/>
      <point x="42" y="-37"/>
      <point x="19" y="-53"/>
      <point x="19" y="-85" type="curve" smooth="yes"/>
      <point x="19" y="-120"/>
      <point x="45" y="-133"/>
      <point x="98" y="-132" type="curve" smooth="yes"/>
      <point x="197" y="-129"/>
      <point x="325" y="-124"/>
      <point x="425" y="-119" type="curve" smooth="yes"/>
      <point x="475" y="-116"/>
      <point x="499" y="-104"/>
      <point x="499" y="-71" type="curve" smooth="yes"/>
      <point x="499" y="-41"/>
      <point x="477" y="-28"/>
      <point x="429" y="-28" type="curve" smooth="yes"/>
      <point x="323" y="-28"/>
      <point x="196" y="-30"/>
    </contour>
  </outline>
</glyph>
<glyph name="braceleft" format="2">
  <advance width="390"/>
  <unicode hex="007B"/>
  <outline>
    <contour>
      <point x="5" y="346" type="curve" smooth="yes"/>
      <point x="5" y="303"/>
      <point x="23" y="278"/>
      <point x="72" y="262" type="curve" smooth="yes"/>
      <point x="131" y="242"/>
      <point x="158" y="215"/>
      <point x="152" y="174" type="curve" smooth="yes"/>
      <point x="144" y="111"/>
      <point x="119" y="44"/>
      <point x="110" y="-21" type="curve" smooth="yes"/>
      <point x="95" y="-126"/>
      <point x="173" y="-166"/>
      <point x="269" y="-166" type="curve" smooth="yes"/>
      <point x="346" y="-166"/>
      <point x="378" y="-158"/>
      <point x="378" y="-126" type="curve" smooth="yes"/>
      <point x="378" y="-93"/>
      <point x="351" y="-85"/>
      <point x="296" y="-85" type="curve" smooth="yes"/>
      <point x="228" y="-85"/>
      <point x="201" y="-64"/>
      <point x="208" y="-15" type="curve" smooth="yes"/>
      <point x="217" y="45"/>
      <point x="239" y="110"/>
      <point x="250" y="172" type="curve" smooth="yes"/>
      <point x="265" y="257"/>
      <point x="229" y="301"/>
      <point x="155" y="318" type="curve" smooth="yes"/>
      <point x="131" y="324"/>
      <point x="121" y="331"/>
      <point x="121" y="346" type="curve" smooth="yes"/>
      <point x="121" y="360"/>
      <point x="131" y="367"/>
      <point x="153" y="370" type="curve" smooth="yes"/>
      <point x="214" y="379"/>
      <point x="245" y="400"/>
      <point x="252" y="454" type="curve" smooth="yes"/>
      <point x="263" y="531"/>
      <point x="266" y="625"/>
      <point x="275" y="687" type="curve" smooth="yes"/>
      <point x="281" y="726"/>
      <point x="294" y="738"/>
      <point x="326" y="738" type="curve" smooth="yes"/>
      <point x="364" y="738"/>
      <point x="385" y="754"/>
      <point x="385" y="794" type="curve" smooth="yes"/>
      <point x="385" y="840"/>
      <point x="342" y="860"/>
      <point x="251" y="860" type="curve" smooth="yes"/>
      <point x="135" y="860"/>
      <point x="85" y="809"/>
      <point x="90" y="702" type="curve" smooth="yes"/>
      <point x="93" y="636"/>
      <point x="99" y="571"/>
      <point x="108" y="507" type="curve" smooth="yes"/>
      <point x="113" y="468"/>
      <point x="90" y="439"/>
      <point x="41" y="414" type="curve" smooth="yes"/>
      <point x="17" y="402"/>
      <point x="5" y="382"/>
    </contour>
    <contour>
      <point x="185" y="555" type="curve" smooth="yes"/>
      <point x="166" y="555"/>
      <point x="151" y="570"/>
      <point x="151" y="589" type="curve" smooth="yes"/>
      <point x="151" y="608"/>
      <point x="166" y="624"/>
      <point x="185" y="624" type="curve" smooth="yes"/>
      <point x="204" y="624"/>
      <point x="220" y="608"/>
      <point x="220" y="589" type="curve" smooth="yes"/>
      <point x="220" y="570"/>
      <point x="204" y="555"/>
    </contour>
    <contour>
      <point x="191" y="667" type="curve" smooth="yes"/>
      <point x="166" y="667"/>
      <point x="147" y="686"/>
      <point x="147" y="711" type="curve" smooth="yes"/>
      <point x="147" y="736"/>
      <point x="166" y="757"/>
      <point x="191" y="757" type="curve" smooth="yes"/>
      <point x="216" y="757"/>
      <point x="237" y="736"/>
      <point x="237" y="711" type="curve" smooth="yes"/>
      <point x="237" y="686"/>
      <point x="216" y="667"/>
    </contour>
    <contour>
      <point x="169" y="3" type="curve" smooth="yes"/>
      <point x="169" y="3"/>
      <point x="169" y="3"/>
      <point x="169" y="3" type="curve" smooth="yes"/>
      <point x="169" y="3"/>
      <point x="169" y="3"/>
      <point x="169" y="3" type="curve" smooth="yes"/>
      <point x="169" y="3"/>
      <point x="169" y="3"/>
      <point x="169" y="3" type="curve" smooth="yes"/>
      <point x="169" y="3"/>
      <point x="169" y="3"/>
    </contour>
    <contour>
      <point x="193" y="122" type="curve" smooth="yes"/>
      <point x="193" y="122"/>
      <point x="193" y="122"/>
      <point x="193" y="122" type="curve" smooth="yes"/>
      <point x="193" y="122"/>
      <point x="193" y="122"/>
      <point x="193" y="122" type="curve" smooth="yes"/>
      <point x="193" y="122"/>
      <point x="193" y="122"/>
      <point x="193" y="122" type="curve" smooth="yes"/>
      <point x="193" y="122"/>
      <point x="193" y="122"/>
    </contour>
  </outline>
</glyph>
<glyph name="bar" format="2">
  <advance width="225"/>
  <unicode hex="007C"/>
  <outline>
    <contour>
      <point x="67" y="726" type="curve" smooth="yes"/>
      <point x="61" y="462"/>
      <point x="61" y="183"/>
      <point x="63" y="-82" type="curve" smooth="yes"/>
      <point x="63" y="-126"/>
      <point x="78" y="-150"/>
      <point x="111" y="-150" type="curve" smooth="yes"/>
      <point x="140" y="-150"/>
      <point x="154" y="-128"/>
      <point x="155" y="-82" type="curve" smooth="yes"/>
      <point x="164" y="183"/>
      <point x="169" y="462"/>
      <point x="172" y="721" type="curve" smooth="yes"/>
      <point x="173" y="767"/>
      <point x="162" y="798"/>
      <point x="123" y="798" type="curve" smooth="yes"/>
      <point x="83" y="798"/>
      <point x="68" y="772"/>
    </contour>
  </outline>
</glyph>
<glyph name="braceright" format="2">
  <advance width="404"/>
  <unicode hex="007D"/>
  <outline>
    <contour>
      <point x="392" y="298" type="curve" smooth="yes"/>
      <point x="392" y="355"/>
      <point x="371" y="391"/>
      <point x="313" y="412" type="curve" smooth="yes"/>
      <point x="270" y="427"/>
      <point x="253" y="451"/>
      <point x="251" y="500" type="curve" smooth="yes"/>
      <point x="248" y="570"/>
      <point x="251" y="641"/>
      <point x="248" y="709" type="curve" smooth="yes"/>
      <point x="245" y="779"/>
      <point x="214" y="836"/>
      <point x="88" y="836" type="curve" smooth="yes"/>
      <point x="32" y="836"/>
      <point x="8" y="827"/>
      <point x="8" y="797" type="curve" smooth="yes"/>
      <point x="8" y="761"/>
      <point x="33" y="751"/>
      <point x="73" y="751" type="curve" smooth="yes"/>
      <point x="125" y="751"/>
      <point x="147" y="728"/>
      <point x="151" y="684" type="curve" smooth="yes"/>
      <point x="157" y="618"/>
      <point x="155" y="531"/>
      <point x="160" y="458" type="curve" smooth="yes"/>
      <point x="164" y="391"/>
      <point x="194" y="362"/>
      <point x="248" y="344" type="curve" smooth="yes"/>
      <point x="275" y="335"/>
      <point x="292" y="327"/>
      <point x="292" y="304" type="curve" smooth="yes"/>
      <point x="292" y="284"/>
      <point x="272" y="280"/>
      <point x="191" y="264" type="curve" smooth="yes"/>
      <point x="116" y="250"/>
      <point x="81" y="210"/>
      <point x="96" y="145" type="curve" smooth="yes"/>
      <point x="109" y="91"/>
      <point x="129" y="47"/>
      <point x="144" y="-11" type="curve" smooth="yes"/>
      <point x="154" y="-51"/>
      <point x="128" y="-64"/>
      <point x="75" y="-64" type="curve" smooth="yes"/>
      <point x="32" y="-64"/>
      <point x="7" y="-74"/>
      <point x="7" y="-112" type="curve" smooth="yes"/>
      <point x="7" y="-145"/>
      <point x="39" y="-157"/>
      <point x="116" y="-157" type="curve" smooth="yes"/>
      <point x="203" y="-157"/>
      <point x="245" y="-107"/>
      <point x="236" y="-19" type="curve" smooth="yes"/>
      <point x="231" y="32"/>
      <point x="205" y="82"/>
      <point x="200" y="133" type="curve" smooth="yes"/>
      <point x="196" y="170"/>
      <point x="218" y="186"/>
      <point x="270" y="193" type="curve" smooth="yes"/>
      <point x="347" y="205"/>
      <point x="392" y="242"/>
    </contour>
    <contour>
      <point x="135" y="628" type="curve" smooth="yes"/>
      <point x="61" y="617"/>
      <point x="41" y="605"/>
      <point x="44" y="571" type="curve" smooth="yes"/>
      <point x="47" y="537"/>
      <point x="71" y="532"/>
      <point x="133" y="538" type="curve" smooth="yes"/>
      <point x="189" y="543"/>
      <point x="217" y="547"/>
      <point x="249" y="553" type="curve" smooth="yes"/>
      <point x="324" y="567"/>
      <point x="341" y="578"/>
      <point x="336" y="611" type="curve" smooth="yes"/>
      <point x="331" y="647"/>
      <point x="313" y="645"/>
      <point x="241" y="640" type="curve" smooth="yes"/>
      <point x="215" y="638"/>
      <point x="176" y="634"/>
    </contour>
    <contour>
      <point x="164" y="105" type="curve" smooth="yes"/>
      <point x="164" y="105"/>
      <point x="164" y="105"/>
      <point x="164" y="105" type="curve" smooth="yes"/>
      <point x="164" y="105"/>
      <point x="164" y="105"/>
      <point x="164" y="105" type="curve" smooth="yes"/>
      <point x="164" y="105"/>
      <point x="164" y="105"/>
      <point x="164" y="105" type="curve" smooth="yes"/>
      <point x="164" y="105"/>
      <point x="164" y="105"/>
    </contour>
  </outline>
</glyph>
<glyph name="brokenbar" format="2">
  <advance width="225"/>
  <unicode hex="00A6"/>
  <outline>
    <contour>
      <point x="70" y="714" type="curve" smooth="yes"/>
      <point x="67" y="623"/>
      <point x="66" y="531"/>
      <point x="67" y="440" type="curve" smooth="yes"/>
      <point x="67" y="401"/>
      <point x="85" y="379"/>
      <point x="118" y="379" type="curve" smooth="yes"/>
      <point x="150" y="379"/>
      <point x="165" y="398"/>
      <point x="166" y="438" type="curve" smooth="yes"/>
      <point x="168" y="530"/>
      <point x="169" y="622"/>
      <point x="167" y="714" type="curve" smooth="yes"/>
      <point x="166" y="758"/>
      <point x="148" y="780"/>
      <point x="119" y="780" type="curve" smooth="yes"/>
      <point x="88" y="780"/>
      <point x="71" y="758"/>
    </contour>
    <contour>
      <point x="72" y="212" type="curve" smooth="yes"/>
      <point x="70" y="119"/>
      <point x="69" y="26"/>
      <point x="71" y="-67" type="curve" smooth="yes"/>
      <point x="72" y="-111"/>
      <point x="89" y="-130"/>
      <point x="121" y="-130" type="curve" smooth="yes"/>
      <point x="155" y="-130"/>
      <point x="169" y="-112"/>
      <point x="169" y="-67" type="curve" smooth="yes"/>
      <point x="169" y="26"/>
      <point x="168" y="119"/>
      <point x="164" y="212" type="curve" smooth="yes"/>
      <point x="162" y="247"/>
      <point x="150" y="272"/>
      <point x="117" y="272" type="curve" smooth="yes"/>
      <point x="85" y="272"/>
      <point x="73" y="251"/>
    </contour>
  </outline>
</glyph>
<glyph name="guillemetleft" format="2">
  <advance width="493"/>
  <unicode hex="00AB"/>
  <outline>
    <contour>
      <point x="139" y="81" type="curve" smooth="yes"/>
      <point x="170" y="20"/>
      <point x="263" y="66"/>
      <point x="232" y="122" type="curve" smooth="yes"/>
      <point x="202" y="176"/>
      <point x="171" y="227"/>
      <point x="141" y="275" type="curve" smooth="yes"/>
      <point x="130" y="293"/>
      <point x="129" y="319"/>
      <point x="138" y="335" type="curve" smooth="yes"/>
      <point x="169" y="386"/>
      <point x="200" y="439"/>
      <point x="229" y="492" type="curve" smooth="yes"/>
      <point x="252" y="532"/>
      <point x="191" y="575"/>
      <point x="157" y="526" type="curve" smooth="yes"/>
      <point x="123" y="476"/>
      <point x="89" y="425"/>
      <point x="57" y="371" type="curve" smooth="yes"/>
      <point x="40" y="342"/>
      <point x="38" y="299"/>
      <point x="57" y="256" type="curve" smooth="yes"/>
      <point x="82" y="198"/>
      <point x="110" y="139"/>
    </contour>
    <contour>
      <point x="386" y="47" type="curve" smooth="yes"/>
      <point x="418" y="5"/>
      <point x="476" y="44"/>
      <point x="454" y="79" type="curve" smooth="yes"/>
      <point x="411" y="148"/>
      <point x="368" y="217"/>
      <point x="323" y="284" type="curve" smooth="yes"/>
      <point x="307" y="307"/>
      <point x="314" y="325"/>
      <point x="328" y="343" type="curve" smooth="yes"/>
      <point x="367" y="392"/>
      <point x="408" y="442"/>
      <point x="446" y="493" type="curve" smooth="yes"/>
      <point x="496" y="559"/>
      <point x="391" y="615"/>
      <point x="352" y="547" type="curve" smooth="yes"/>
      <point x="312" y="479"/>
      <point x="274" y="409"/>
      <point x="238" y="339" type="curve" smooth="yes"/>
      <point x="219" y="301"/>
      <point x="219" y="269"/>
      <point x="241" y="239" type="curve" smooth="yes"/>
      <point x="288" y="174"/>
      <point x="337" y="110"/>
    </contour>
  </outline>
</glyph>
<glyph name="guillemetright" format="2">
  <advance width="493"/>
  <unicode hex="00BB"/>
  <outline>
    <contour>
      <point x="317" y="529" type="curve" smooth="yes"/>
      <point x="289" y="566"/>
      <point x="231" y="535"/>
      <point x="254" y="490" type="curve" smooth="yes"/>
      <point x="276" y="447"/>
      <point x="308" y="390"/>
      <point x="326" y="356" type="curve" smooth="yes"/>
      <point x="336" y="338"/>
      <point x="337" y="317"/>
      <point x="330" y="299" type="curve" smooth="yes"/>
      <point x="311" y="248"/>
      <point x="278" y="161"/>
      <point x="258" y="111" type="curve" smooth="yes"/>
      <point x="236" y="54"/>
      <point x="306" y="24"/>
      <point x="331" y="74" type="curve" smooth="yes"/>
      <point x="358" y="128"/>
      <point x="405" y="223"/>
      <point x="429" y="275" type="curve" smooth="yes"/>
      <point x="445" y="312"/>
      <point x="443" y="351"/>
      <point x="422" y="383" type="curve" smooth="yes"/>
      <point x="394" y="426"/>
      <point x="353" y="482"/>
    </contour>
    <contour>
      <point x="132" y="517" type="curve" smooth="yes"/>
      <point x="105" y="555"/>
      <point x="49" y="526"/>
      <point x="71" y="482" type="curve" smooth="yes"/>
      <point x="94" y="435"/>
      <point x="119" y="385"/>
      <point x="141" y="342" type="curve" smooth="yes"/>
      <point x="151" y="321"/>
      <point x="152" y="306"/>
      <point x="143" y="286" type="curve" smooth="yes"/>
      <point x="116" y="230"/>
      <point x="88" y="164"/>
      <point x="61" y="103" type="curve" smooth="yes"/>
      <point x="43" y="62"/>
      <point x="96" y="34"/>
      <point x="122" y="70" type="curve" smooth="yes"/>
      <point x="156" y="119"/>
      <point x="210" y="204"/>
      <point x="245" y="260" type="curve" smooth="yes"/>
      <point x="261" y="285"/>
      <point x="267" y="318"/>
      <point x="243" y="356" type="curve" smooth="yes"/>
      <point x="209" y="410"/>
      <point x="169" y="466"/>
    </contour>
  </outline>
</glyph>
<glyph name="emdash" format="2">
  <advance width="558"/>
  <unicode hex="2014"/>
  <outline>
    <contour>
      <point x="89" y="392" type="curve" smooth="yes"/>
      <point x="49" y="393"/>
      <point x="30" y="375"/>
      <point x="30" y="342" type="curve" smooth="yes"/>
      <point x="30" y="311"/>
      <point x="47" y="289"/>
      <point x="93" y="288" type="curve" smooth="yes"/>
      <point x="217" y="284"/>
      <point x="344" y="282"/>
      <point x="473" y="284" type="curve" smooth="yes"/>
      <point x="511" y="285"/>
      <point x="528" y="299"/>
      <point x="528" y="326" type="curve" smooth="yes"/>
      <point x="528" y="350"/>
      <point x="514" y="369"/>
      <point x="478" y="372" type="curve" smooth="yes"/>
      <point x="348" y="383"/>
      <point x="219" y="389"/>
    </contour>
  </outline>
</glyph>
<glyph name="quoteright" format="2">
  <advance width="260"/>
  <unicode hex="2019"/>
  <outline>
    <contour>
      <point x="59" y="421" type="curve" smooth="yes"/>
      <point x="4" y="400"/>
      <point x="34" y="331"/>
      <point x="87" y="347" type="curve" smooth="yes"/>
      <point x="174" y="374"/>
      <point x="234" y="446"/>
      <point x="234" y="587" type="curve" smooth="yes"/>
      <point x="234" y="666"/>
      <point x="201" y="710"/>
      <point x="125" y="710" type="curve" smooth="yes"/>
      <point x="69" y="710"/>
      <point x="28" y="676"/>
      <point x="28" y="616" type="curve" smooth="yes"/>
      <point x="28" y="513"/>
      <point x="126" y="541"/>
      <point x="126" y="489" type="curve" smooth="yes"/>
      <point x="126" y="461"/>
      <point x="101" y="436"/>
    </contour>
    <contour>
      <point x="129" y="577" type="curve" smooth="yes"/>
      <point x="106" y="577"/>
      <point x="87" y="596"/>
      <point x="87" y="619" type="curve" smooth="yes"/>
      <point x="87" y="642"/>
      <point x="106" y="661"/>
      <point x="129" y="661" type="curve" smooth="yes"/>
      <point x="152" y="661"/>
      <point x="171" y="642"/>
      <point x="171" y="619" type="curve" smooth="yes"/>
      <point x="171" y="596"/>
      <point x="152" y="577"/>
    </contour>
    <contour>
      <point x="169" y="482" type="curve" smooth="yes"/>
      <point x="159" y="488"/>
      <point x="150" y="486"/>
      <point x="138" y="465" type="curve" smooth="yes"/>
      <point x="128" y="447"/>
      <point x="130" y="435"/>
      <point x="135" y="431" type="curve" smooth="yes"/>
      <point x="139" y="428"/>
      <point x="139" y="428"/>
      <point x="145" y="425" type="curve" smooth="yes"/>
      <point x="155" y="420"/>
      <point x="166" y="419"/>
      <point x="177" y="439" type="curve" smooth="yes"/>
      <point x="188" y="460"/>
      <point x="186" y="468"/>
      <point x="178" y="475" type="curve" smooth="yes"/>
      <point x="174" y="478"/>
      <point x="173" y="479"/>
    </contour>
  </outline>
</glyph>
<glyph name="ellipsis" format="2">
  <advance width="760"/>
  <unicode hex="2026"/>
  <outline>
    <contour>
      <point x="619" y="-29" type="curve" smooth="yes"/>
      <point x="686" y="-29"/>
      <point x="725" y="5"/>
      <point x="725" y="67" type="curve" smooth="yes"/>
      <point x="725" y="121"/>
      <point x="687" y="165"/>
      <point x="622" y="165" type="curve" smooth="yes"/>
      <point x="564" y="165"/>
      <point x="520" y="128"/>
      <point x="520" y="70" type="curve" smooth="yes"/>
      <point x="520" y="11"/>
      <point x="560" y="-29"/>
    </contour>
    <contour>
      <point x="609" y="34" type="curve" smooth="yes"/>
      <point x="586" y="34"/>
      <point x="568" y="52"/>
      <point x="568" y="75" type="curve" smooth="yes"/>
      <point x="568" y="97"/>
      <point x="586" y="116"/>
      <point x="609" y="116" type="curve" smooth="yes"/>
      <point x="631" y="116"/>
      <point x="650" y="97"/>
      <point x="650" y="75" type="curve" smooth="yes"/>
      <point x="650" y="52"/>
      <point x="631" y="34"/>
    </contour>
    <contour>
      <point x="378" y="-25" type="curve" smooth="yes"/>
      <point x="437" y="-25"/>
      <point x="471" y="3"/>
      <point x="471" y="60" type="curve" smooth="yes"/>
      <point x="471" y="112"/>
      <point x="440" y="148"/>
      <point x="383" y="148" type="curve" smooth="yes"/>
      <point x="330" y="148"/>
      <point x="290" y="113"/>
      <point x="290" y="62" type="curve" smooth="yes"/>
      <point x="290" y="12"/>
      <point x="324" y="-25"/>
    </contour>
    <contour>
      <point x="394" y="84" type="curve" smooth="yes"/>
      <point x="394" y="84"/>
      <point x="394" y="84"/>
      <point x="394" y="84" type="curve" smooth="yes"/>
      <point x="394" y="84"/>
      <point x="394" y="84"/>
      <point x="394" y="84" type="curve" smooth="yes"/>
      <point x="394" y="84"/>
      <point x="394" y="84"/>
      <point x="394" y="84" type="curve" smooth="yes"/>
      <point x="394" y="84"/>
      <point x="394" y="84"/>
    </contour>
    <component base="period"/>
  </outline>
</glyph>
<glyph name="guilsinglleft" format="2">
  <advance width="331"/>
  <unicode hex="2039"/>
  <outline>
    <contour>
      <point x="223" y="63" type="curve" smooth="yes"/>
      <point x="256" y="26"/>
      <point x="311" y="68"/>
      <point x="287" y="104" type="curve" smooth="yes"/>
      <point x="246" y="167"/>
      <point x="192" y="241"/>
      <point x="150" y="299" type="curve" smooth="yes"/>
      <point x="133" y="322"/>
      <point x="136" y="349"/>
      <point x="157" y="369" type="curve" smooth="yes"/>
      <point x="199" y="409"/>
      <point x="244" y="452"/>
      <point x="284" y="492" type="curve" smooth="yes"/>
      <point x="342" y="550"/>
      <point x="253" y="622"/>
      <point x="203" y="561" type="curve" smooth="yes"/>
      <point x="153" y="499"/>
      <point x="102" y="435"/>
      <point x="54" y="370" type="curve" smooth="yes"/>
      <point x="28" y="336"/>
      <point x="25" y="300"/>
      <point x="57" y="260" type="curve" smooth="yes"/>
      <point x="109" y="195"/>
      <point x="163" y="130"/>
    </contour>
  </outline>
</glyph>
<glyph name="C.001" format="2">
  <advance width="514"/>
  <anchor x="226" y="0" name="cedilla"/>
  <anchor x="311" y="778" name="top"/>
  <outline>
    <contour>
      <point x="290" y="-12" type="curve" smooth="yes"/>
      <point x="366" y="-12"/>
      <point x="417" y="13"/>
      <point x="448" y="46" type="curve" smooth="yes"/>
      <point x="505" y="106"/>
      <point x="486" y="237"/>
      <point x="411" y="237" type="curve" smooth="yes"/>
      <point x="397" y="237"/>
      <point x="386" y="235"/>
      <point x="375" y="231" type="curve"/>
      <point x="393" y="106"/>
      <point x="383" y="82"/>
      <point x="354" y="82" type="curve" smooth="yes"/>
      <point x="330" y="82"/>
      <point x="317" y="96"/>
      <point x="320" y="217" type="curve"/>
      <point x="303" y="214"/>
      <point x="281" y="210"/>
      <point x="265" y="210" type="curve"/>
      <point x="263" y="129"/>
      <point x="251" y="113"/>
      <point x="232" y="112" type="curve" smooth="yes"/>
      <point x="207" y="111"/>
      <point x="195" y="132"/>
      <point x="201" y="218" type="curve"/>
      <point x="195" y="220"/>
      <point x="191" y="221"/>
      <point x="183" y="225" type="curve" smooth="yes"/>
      <point x="157" y="238"/>
      <point x="130" y="281"/>
      <point x="130" y="352" type="curve" smooth="yes"/>
      <point x="130" y="519"/>
      <point x="220" y="620"/>
      <point x="327" y="633" type="curve" smooth="yes"/>
      <point x="335" y="634"/>
      <point x="344" y="635"/>
      <point x="350" y="635" type="curve" smooth="yes"/>
      <point x="357" y="635"/>
      <point x="364" y="636"/>
      <point x="374" y="635" type="curve" smooth="yes"/>
      <point x="383" y="634"/>
      <point x="391" y="633"/>
      <point x="400" y="630" type="curve" smooth="yes"/>
      <point x="407" y="628"/>
      <point x="414" y="625"/>
      <point x="419" y="623" type="curve" smooth="yes"/>
      <point x="426" y="620"/>
      <point x="434" y="616"/>
      <point x="441" y="612" type="curve" smooth="yes"/>
      <point x="449" y="607"/>
      <point x="460" y="601"/>
      <point x="475" y="601" type="curve" smooth="yes"/>
      <point x="490" y="601"/>
      <point x="504" y="610"/>
      <point x="504" y="632" type="curve" smooth="yes"/>
      <point x="504" y="677"/>
      <point x="437" y="711"/>
      <point x="357" y="711" type="curve" smooth="yes"/>
      <point x="177" y="711"/>
      <point x="40" y="560"/>
      <point x="40" y="314" type="curve" smooth="yes"/>
      <point x="40" y="85"/>
      <point x="147" y="-12"/>
    </contour>
    <contour>
      <point x="342" y="779" type="line" smooth="yes"/>
      <point x="335" y="830"/>
      <point x="250" y="810"/>
      <point x="259" y="766" type="curve" smooth="yes"/>
      <point x="308" y="524" type="line" smooth="yes"/>
      <point x="316" y="484"/>
      <point x="381" y="498"/>
      <point x="376" y="537" type="curve" smooth="yes"/>
    </contour>
    <contour>
      <point x="155" y="700" type="line" smooth="yes"/>
      <point x="120" y="748"/>
      <point x="50" y="698"/>
      <point x="93" y="650" type="curve" smooth="yes"/>
      <point x="151" y="586" type="line" smooth="yes"/>
      <point x="182" y="552"/>
      <point x="234" y="593"/>
      <point x="204" y="634" type="curve" smooth="yes"/>
    </contour>
    <contour>
      <point x="278" y="330" type="curve" smooth="yes"/>
      <point x="309" y="330"/>
      <point x="334" y="355"/>
      <point x="334" y="386" type="curve" smooth="yes"/>
      <point x="334" y="417"/>
      <point x="309" y="442"/>
      <point x="278" y="442" type="curve" smooth="yes"/>
      <point x="247" y="442"/>
      <point x="222" y="417"/>
      <point x="222" y="386" type="curve" smooth="yes"/>
      <point x="222" y="355"/>
      <point x="247" y="330"/>
    </contour>
    <contour>
      <point x="429" y="63" type="line" smooth="yes"/>
      <point x="416" y="85"/>
      <point x="376" y="63"/>
      <point x="386" y="47" type="curve" smooth="yes"/>
      <point x="391" y="39" type="line" smooth="yes"/>
      <point x="400" y="25"/>
      <point x="442" y="41"/>
      <point x="432" y="58" type="curve" smooth="yes"/>
    </contour>
    <contour>
      <point x="306" y="50" type="line" smooth="yes"/>
      <point x="302" y="82"/>
      <point x="234" y="77"/>
      <point x="237" y="48" type="curve" smooth="yes"/>
      <point x="238" y="37" type="line" smooth="yes"/>
      <point x="241" y="4"/>
      <point x="310" y="16"/>
      <point x="307" y="41" type="curve" smooth="yes"/>
    </contour>
  </outline>
</glyph>
<glyph name="U.top90" format="2">
  <advance width="645"/>
  <outline>
    <contour>
      <point x="309" y="16" type="curve" smooth="yes"/>
      <point x="487" y="16"/>
      <point x="560" y="135"/>
      <point x="572" y="291" type="curve" smooth="yes"/>
      <point x="580" y="391"/>
      <point x="586" y="491"/>
      <point x="590" y="593" type="curve" smooth="yes"/>
      <point x="593" y="679"/>
      <point x="538" y="718"/>
      <point x="469" y="718" type="curve" smooth="yes"/>
      <point x="373" y="718"/>
      <point x="327" y="645"/>
      <point x="347" y="566" type="curve" smooth="yes"/>
      <point x="393" y="385"/>
      <point x="436" y="275"/>
      <point x="427" y="197" type="curve" smooth="yes"/>
      <point x="420" y="137"/>
      <point x="375" y="99"/>
      <point x="305" y="99" type="curve" smooth="yes"/>
      <point x="211" y="99"/>
      <point x="157" y="161"/>
      <point x="163" y="292" type="curve" smooth="yes"/>
      <point x="182" y="726" type="line" smooth="yes"/>
      <point x="184" y="773"/>
      <point x="120" y="776"/>
      <point x="114" y="729" type="curve" smooth="yes"/>
      <point x="62" y="314" type="line" smooth="yes"/>
      <point x="37" y="111"/>
      <point x="131" y="16"/>
    </contour>
    <contour>
      <point x="302" y="183" type="curve" smooth="yes"/>
      <point x="332" y="183"/>
      <point x="356" y="207"/>
      <point x="356" y="237" type="curve" smooth="yes"/>
      <point x="356" y="267"/>
      <point x="332" y="291"/>
      <point x="302" y="291" type="curve" smooth="yes"/>
      <point x="272" y="291"/>
      <point x="248" y="267"/>
      <point x="248" y="237" type="curve" smooth="yes"/>
      <point x="248" y="207"/>
      <point x="272" y="183"/>
    </contour>
    <contour>
      <point x="250" y="692" type="curve" smooth="yes"/>
      <point x="45" y="682" type="line" smooth="yes"/>
      <point x="-2" y="680"/>
      <point x="-2" y="608"/>
      <point x="48" y="611" type="curve" smooth="yes"/>
      <point x="250" y="622" type="line" smooth="yes"/>
      <point x="293" y="624"/>
      <point x="292" y="694"/>
    </contour>
    <contour>
      <point x="267" y="497" type="curve" smooth="yes"/>
      <point x="136" y="502" type="line" smooth="yes"/>
      <point x="103" y="503"/>
      <point x="97" y="436"/>
      <point x="134" y="434" type="curve" smooth="yes"/>
      <point x="262" y="426" type="line" smooth="yes"/>
      <point x="307" y="423"/>
      <point x="313" y="495"/>
    </contour>
    <contour>
      <point x="477" y="706" type="curve" smooth="yes"/>
      <point x="464" y="705" type="line" smooth="yes"/>
      <point x="424" y="702"/>
      <point x="433" y="645"/>
      <point x="469" y="645" type="curve" smooth="yes"/>
      <point x="476" y="645" type="line" smooth="yes"/>
      <point x="511" y="645"/>
      <point x="507" y="708"/>
    </contour>
    <contour>
      <point x="486" y="416" type="curve" smooth="yes"/>
      <point x="462" y="416"/>
      <point x="443" y="435"/>
      <point x="443" y="459" type="curve" smooth="yes"/>
      <point x="443" y="483"/>
      <point x="462" y="502"/>
      <point x="486" y="502" type="curve" smooth="yes"/>
      <point x="510" y="502"/>
      <point x="529" y="483"/>
      <point x="529" y="459" type="curve" smooth="yes"/>
      <point x="529" y="435"/>
      <point x="510" y="416"/>
    </contour>
    <contour>
      <point x="469" y="541" type="curve" smooth="yes"/>
      <point x="441" y="541"/>
      <point x="419" y="563"/>
      <point x="419" y="591" type="curve" smooth="yes"/>
      <point x="419" y="618"/>
      <point x="441" y="639"/>
      <point x="469" y="639" type="curve" smooth="yes"/>
      <point x="496" y="639"/>
      <point x="517" y="618"/>
      <point x="517" y="591" type="curve" smooth="yes"/>
      <point x="517" y="563"/>
      <point x="496" y="541"/>
    </contour>
    <contour>
      <point x="500" y="295" type="curve" smooth="yes"/>
      <point x="480" y="295"/>
      <point x="464" y="311"/>
      <point x="464" y="331" type="curve" smooth="yes"/>
      <point x="464" y="351"/>
      <point x="480" y="366"/>
      <point x="500" y="366" type="curve" smooth="yes"/>
      <point x="520" y="366"/>
      <point x="535" y="351"/>
      <point x="535" y="331" type="curve" smooth="yes"/>
      <point x="535" y="311"/>
      <point x="520" y="295"/>
    </contour>
  </outline>
</glyph>
<glyph name="acutecomb.case" format="2">
  <anchor x="110" y="700" name="_top"/>
  <anchor x="361" y="550" name="bottom"/>
  <anchor x="356" y="627" name="top"/>
  <outline>
    <contour>
      <point x="142" y="752" type="curve" smooth="yes"/>
      <point x="178" y="777"/>
      <point x="230" y="813"/>
      <point x="271" y="843" type="curve" smooth="yes"/>
      <point x="308" y="870"/>
      <point x="305" y="908"/>
      <point x="282" y="931" type="curve" smooth="yes"/>
      <point x="256" y="957"/>
      <point x="217" y="954"/>
      <point x="192" y="924" type="curve" smooth="yes"/>
      <point x="164" y="890"/>
      <point x="125" y="839"/>
      <point x="95" y="798" type="curve" smooth="yes"/>
      <point x="81" y="779"/>
      <point x="79" y="760"/>
      <point x="92" y="748" type="curve" smooth="yes"/>
      <point x="105" y="735"/>
      <point x="122" y="738"/>
    </contour>
  </outline>
</glyph>
<glyph name="cedillacomb.case" format="2">
  <anchor x="159" y="0" name="_cedilla"/>
  <anchor x="361" y="550" name="bottom"/>
  <anchor x="356" y="627" name="top"/>
  <outline>
    <contour>
      <point x="233" y="39" type="curve"/>
      <point x="156" y="39" type="line"/>
      <point x="111" y="-5"/>
      <point x="89" y="-36"/>
      <point x="89" y="-73" type="curve" smooth="yes"/>
      <point x="89" y="-108"/>
      <point x="110" y="-131"/>
      <point x="182" y="-142" type="curve" smooth="yes"/>
      <point x="244" y="-151"/>
      <point x="259" y="-163"/>
      <point x="259" y="-189" type="curve" smooth="yes"/>
      <point x="259" y="-216"/>
      <point x="235" y="-229"/>
      <point x="182" y="-229" type="curve" smooth="yes"/>
      <point x="101" y="-229"/>
      <point x="87" y="-176"/>
      <point x="50" y="-176" type="curve" smooth="yes"/>
      <point x="33" y="-176"/>
      <point x="19" y="-189"/>
      <point x="19" y="-209" type="curve" smooth="yes"/>
      <point x="19" y="-261"/>
      <point x="93" y="-300"/>
      <point x="181" y="-300" type="curve" smooth="yes"/>
      <point x="284" y="-300"/>
      <point x="338" y="-262"/>
      <point x="338" y="-188" type="curve" smooth="yes"/>
      <point x="338" y="-121"/>
      <point x="297" y="-93"/>
      <point x="218" y="-82" type="curve" smooth="yes"/>
      <point x="176" y="-76"/>
      <point x="169" y="-67"/>
      <point x="169" y="-53" type="curve" smooth="yes"/>
      <point x="169" y="-38"/>
      <point x="179" y="-21"/>
    </contour>
  </outline>
</glyph>
<glyph name="ogonekcomb.case" format="2">
  <anchor x="194" y="0" name="_ogonek"/>
  <anchor x="361" y="550" name="bottom"/>
  <anchor x="356" y="627" name="top"/>
  <outline>
    <contour>
      <point x="249" y="28" type="curve"/>
      <point x="148" y="28" type="line"/>
      <point x="78" y="-1"/>
      <point x="15" y="-65"/>
      <point x="15" y="-150" type="curve" smooth="yes"/>
      <point x="15" y="-226"/>
      <point x="69" y="-277"/>
      <point x="154" y="-277" type="curve" smooth="yes"/>
      <point x="210" y="-277"/>
      <point x="257" y="-259"/>
      <point x="257" y="-218" type="curve" smooth="yes"/>
      <point x="257" y="-195"/>
      <point x="245" y="-181"/>
      <point x="219" y="-181" type="curve" smooth="yes"/>
      <point x="194" y="-181"/>
      <point x="178" y="-190"/>
      <point x="150" y="-190" type="curve" smooth="yes"/>
      <point x="115" y="-189"/>
      <point x="98" y="-164"/>
      <point x="98" y="-136" type="curve" smooth="yes"/>
      <point x="98" y="-66"/>
      <point x="157" y="-20"/>
    </contour>
  </outline>
</glyph>
